<?xml version="1.0" encoding="UTF-8"?>
<svg version="1.1" xmlns="http://www.w3.org/2000/svg" width="350" height="350">
<path d="M0 0 C1.65789838 0.71946533 3.31655645 1.43945059 4.9453125 2.22265625 C7.79994572 3.30264106 10.69273158 3.79505032 13.6875 4.375 C27.41486474 7.21862866 38.96409947 14.09563822 51 21 C51 21.66 51 22.32 51 23 C51.66 23 52.32 23 53 23 C53 23.66 53 24.32 53 25 C54.0828125 25.3403125 54.0828125 25.3403125 55.1875 25.6875 C57.92036863 26.9628387 59.3348437 28.27733233 61.359375 30.44921875 C63.54385549 32.51407292 65.92985059 34.19048751 68.375 35.9375 C75.13624472 40.78638194 80.84204892 45.64801925 86.2421875 51.98046875 C89.83705647 56.11057377 93.63456203 59.92508075 97.9375 63.3125 C98.618125 63.869375 99.29875 64.42625 100 65 C100 65.66 100 66.32 100 67 C100.66 67 101.32 67 102 67 C102 67.66 102 68.32 102 69 C102.60070312 69.26683594 103.20140625 69.53367187 103.8203125 69.80859375 C110.21642713 73.30467791 114.18404813 81.03250079 118 87 C118.53625 85.80375 119.0725 84.6075 119.625 83.375 C127.0846438 70.06465518 140.79333684 60.62141584 153 52 C153.80824219 51.40703125 154.61648437 50.8140625 155.44921875 50.203125 C168.26857079 41.11969841 181.60381831 36.53788141 196.87207031 33.44555664 C198.93032289 33.01458934 200.96096911 32.51314049 203 32 C205.16649984 31.56167464 207.33318779 31.12427859 209.5 30.6875 C214.27307865 29.68525272 218.7857404 28.45902825 223.375 26.8125 C228.18731064 25.11593472 231.92553046 24.60965619 237 25 C237 25.66 237 26.32 237 27 C237.99 26.67 238.98 26.34 240 26 C247.65390483 25.71102604 255.14535207 26.4924709 262.75 27.3125 C263.9359375 27.43044922 265.121875 27.54839844 266.34375 27.66992188 C274.40310304 28.52776786 282.14729546 29.99918064 290 32 C290 32.66 290 33.32 290 34 C290.86625 34.0928125 290.86625 34.0928125 291.75 34.1875 C295.0437711 35.37691734 296.14717224 37.06103182 298 40 C298.75 43.1875 298.75 43.1875 299 47 C299.09474609 48.02673828 299.09474609 48.02673828 299.19140625 49.07421875 C299.75407149 59.76485836 296.21943553 70.6275748 292.80102539 80.6496582 C291.96254184 83.10990846 291.15484735 85.57882796 290.3515625 88.05078125 C286.00045821 101.35422948 281.1444592 114.01362548 274.76586914 126.48364258 C273.00213704 129.93547505 271.36385147 133.37005687 270 137 C269.34 137 268.68 137 268 137 C267.74992187 137.8559375 267.49984375 138.711875 267.2421875 139.59375 C265.90924333 143.24886734 264.19929512 146.21243793 262.125 149.5 C261.44695312 150.5828125 260.76890625 151.665625 260.0703125 152.78125 C258.72193394 154.87759705 257.33527455 156.94996212 255.90625 158.9921875 C253.9158 162.13285656 252.64194466 165.13477181 251.375 168.625 C250.07021263 172.1903107 248.78377788 175.64518839 247 179 C247.68964844 178.7834375 248.37929688 178.566875 249.08984375 178.34375 C255.2999168 176.50372836 260.53028208 175.68181715 267 176 C267.33 177.32 267.66 178.64 268 180 C263.55563235 183.0948633 259.05357038 184.22949696 253.875 185.5 C252.16652812 185.9317438 250.45819384 186.36403246 248.75 186.796875 C247.93015625 187.00248047 247.1103125 187.20808594 246.265625 187.41992188 C243.4519814 188.14031166 240.66449793 188.94167958 237.875 189.75 C234.57881742 190.67272607 231.47251811 191.21353644 228.0625 191.5 C224.77740384 191.762324 224.77740384 191.762324 222 193.5 C219.18773338 195.60919997 216.56782605 195.49959821 213.12109375 195.69140625 C210.7025749 195.88835691 210.7025749 195.88835691 208 198 C205.3125 197.625 205.3125 197.625 203 197 C203 196.01 203 195.02 203 194 C202.0925 194.185625 201.185 194.37125 200.25 194.5625 C194.82624421 195.36767612 189.41746155 194.57821839 184 194 C184.89138672 194.38478516 184.89138672 194.38478516 185.80078125 194.77734375 C198.94329342 200.84783537 209.45496788 210.45666531 215.24609375 223.890625 C215.49488281 224.58671875 215.74367188 225.2828125 216 226 C216.66 226 217.32 226 218 226 C218 226.66 218 227.32 218 228 C218.721875 228.20625 219.44375 228.4125 220.1875 228.625 C223.89197027 230.43607435 225.63555677 232.65037209 228 236 C228.8125 238.875 228.8125 238.875 229 241 C230.32 241.33 231.64 241.66 233 242 C232.72995846 245.96060927 232.51428214 247.53714607 229.5 250.25 C228.675 250.8275 227.85 251.405 227 252 C226.67 252.66 226.34 253.32 226 254 C226.66 254 227.32 254 228 254 C227.25 256.375 227.25 256.375 226 259 C224.68 259.66 223.36 260.32 222 261 C222.33 265.62 222.66 270.24 223 275 C221.02 275 219.04 275 217 275 C216.01 272.36 215.02 269.72 214 267 C213.34 267.33 212.68 267.66 212 268 C212.0825 268.763125 212.165 269.52625 212.25 270.3125 C212 273 212 273 210.5625 274.5625 C203.06185423 278.77017933 196.02538719 280.78457622 187.53515625 282.33984375 C184.76628622 282.85690346 182.08983221 283.45083775 179.375 284.1875 C176 285 176 285 173.60546875 284.89453125 C170.44811695 285.02234009 168.70225677 285.9987746 165.9375 287.5 C159.92718839 290.29511803 154.54504135 291.70171075 148 290 C145.05942998 287.9891088 142.70736492 285.83971847 140.25390625 283.26171875 C136.98200359 279.97847501 133.87072186 278.29542349 129.5 276.8125 C124.97402961 274.46869391 122.67715278 271.83564863 121 267 C121.19921875 264.96875 121.19921875 264.96875 121.6875 262.875 C123.04109141 255.87534712 117.61964904 249.6335891 114 244 C112.99477209 242.33648125 111.99259926 240.67108483 111 239 C110.01 241.97 110.01 241.97 109 245 C108.34 245 107.68 245 107 245 C106.814375 245.66 106.62875 246.32 106.4375 247 C104.36014031 251.33535936 101.21962546 254.46879788 98 258 C96.22082755 260.07570119 94.44623772 262.15514273 92.67578125 264.23828125 C89.90086394 267.15550201 87.33703944 268.85644616 83.625 270.4375 C79.9461812 271.89109416 79.9461812 271.89109416 76.75 274.1875 C74 276 74 276 71 276 C70.67 277.32 70.34 278.64 70 280 C66.61981469 281.04005702 63.5219721 281.08004482 60 281 C60 281.66 60 282.32 60 283 C56.42096248 285.15280452 53.0520889 285.52343955 48.9375 286 C44.36392877 286.54147639 39.87634774 287.19972266 35.375 288.1875 C20.29665253 290.9880846 8.75032174 285.27204662 -4 278 C-4 277.34 -4 276.68 -4 276 C-4.99 275.67 -5.98 275.34 -7 275 C-8.36639342 273.3603279 -9.6949419 271.68889872 -11 270 C-13.30513499 267.63723663 -15.56679266 265.35213 -18.12890625 263.26953125 C-21.31582366 259.40398007 -20.46533254 255.31654278 -20.33984375 250.5078125 C-19.91654211 246.13856111 -18.8907071 242.93897313 -17 239 C-13 239 -13 239 -11 240 C-11.14194764 237.93722893 -11.28872216 235.87478969 -11.4375 233.8125 C-11.51871094 232.66394531 -11.59992187 231.51539063 -11.68359375 230.33203125 C-11.95403812 227.48401829 -12.37521747 224.78789518 -13 222 C-12.01 221.67 -11.02 221.34 -10 221 C-9.26676204 218.98491642 -9.26676204 218.98491642 -9 217 C-8.34 217 -7.68 217 -7 217 C-7.020625 216.05125 -7.04125 215.1025 -7.0625 214.125 C-7 211 -7 211 -6 209 C-3.671875 208.76171875 -3.671875 208.76171875 -0.75 208.6875 C3.08925737 208.42788832 5.45826388 208.25375524 8.1875 205.4375 C8.785625 204.633125 9.38375 203.82875 10 203 C9.01 201.68 8.02 200.36 7 199 C5.80375 199.33 4.6075 199.66 3.375 200 C-0.15791497 200.89265823 -3.34079109 201.18296045 -7 201 C-7.5625 199.0625 -7.5625 199.0625 -8 197 C-7.67 196.67 -7.34 196.34 -7 196 C-8.09957031 195.97421875 -9.19914062 195.9484375 -10.33203125 195.921875 C-19.2238308 195.617658 -26.82447766 194.8322761 -35 191 C-35.99 190.53980469 -35.99 190.53980469 -37 190.0703125 C-38.35025686 189.41393764 -39.6792615 188.7139127 -41 188 C-40.773125 186.865625 -40.54625 185.73125 -40.3125 184.5625 C-39.88222036 181.19099382 -40.16188538 178.97714682 -41.375 175.8125 C-45.32299752 165.41975513 -44.16226278 153.21320718 -44.16796875 142.234375 C-44.17119548 140.74668346 -44.17456052 139.25899221 -44.17805481 137.77130127 C-44.18399461 134.67190823 -44.18590006 131.57254285 -44.18530273 128.47314453 C-44.18520137 124.55272927 -44.1988504 120.63249614 -44.21607494 116.71212387 C-44.22733583 113.64383166 -44.22921769 110.57558155 -44.22869301 107.50727081 C-44.22985218 106.06436791 -44.23415355 104.62146313 -44.24202538 103.17858124 C-44.28766053 93.9518813 -43.69833947 85.00594181 -42.48776245 75.86412048 C-41.7303719 69.8639695 -41.33736307 63.84521677 -40.9375 57.8125 C-40.78256043 55.50633341 -40.62509775 53.20033464 -40.46484375 50.89453125 C-40.399021 49.90300049 -40.33319824 48.91146973 -40.26538086 47.88989258 C-39.99002514 44.89137773 -39.49619061 41.96888633 -39 39 C-38.89906112 37.58779324 -38.8260667 36.17313836 -38.7890625 34.7578125 C-38.76070312 34.00113281 -38.73234375 33.24445313 -38.703125 32.46484375 C-38.65131032 30.91299394 -38.60695997 29.36087579 -38.5703125 27.80859375 C-38.34599381 22.30343914 -37.16125638 18.0737516 -35 13 C-33.68 13 -32.36 13 -31 13 C-30.85304688 12.41992188 -30.70609375 11.83984375 -30.5546875 11.2421875 C-29.17852419 6.44934289 -27.70368798 2.40177497 -23.91796875 -0.97265625 C-17.22484968 -4.55776891 -6.98183258 -1.78681971 0 0 Z M-18 14 C-18 14.99 -18 15.98 -18 17 C-17.01 16.01 -16.02 15.02 -15 14 C-15.99 14 -16.98 14 -18 14 Z M-21 26 C-20.67 26.66 -20.34 27.32 -20 28 C-19.67 27.34 -19.34 26.68 -19 26 C-19.66 26 -20.32 26 -21 26 Z M283 41 C283.66 42.98 284.32 44.96 285 47 C285.66 47 286.32 47 287 47 C287.33 45.35 287.66 43.7 288 42 C286.35 41.67 284.7 41.34 283 41 Z M49 44 C50.08279641 47.24838923 50.89036845 48.04282583 53.4375 50.1875 C54.05496094 50.71730469 54.67242187 51.24710938 55.30859375 51.79296875 C56.92500802 53.1936275 56.92500802 53.1936275 59 53 C59 53.66 59 54.32 59 55 C59.66 55 60.32 55 61 55 C61.3403125 55.8353125 61.3403125 55.8353125 61.6875 56.6875 C63.37550036 59.66159588 65.46676517 61.72008865 68 64 C68.66 64 69.32 64 70 64 C70.309375 64.8353125 70.309375 64.8353125 70.625 65.6875 C72.16870661 68.28373385 74.06225476 69.84133936 76.41015625 71.70703125 C79.79605662 74.46067504 82.58353317 77.37529976 85 81 C85.66 81 86.32 81 87 81 C87 81.66 87 82.32 87 83 C87.66 83 88.32 83 89 83 C89.66 84.32 90.32 85.64 91 87 C91 83.63596525 90.38119947 82.59907083 88.625 79.8125 C88.18414062 79.09707031 87.74328125 78.38164063 87.2890625 77.64453125 C86.65097656 76.83048828 86.65097656 76.83048828 86 76 C85.34 76 84.68 76 84 76 C83.731875 75.4225 83.46375 74.845 83.1875 74.25 C81.97070811 71.94449957 80.69666121 69.97943808 79 68 C78.34 68 77.68 68 77 68 C76.7525 67.443125 76.505 66.88625 76.25 66.3125 C74.77075182 63.57589087 73.06532561 61.32349131 71 59 C70.34 59 69.68 59 69 59 C68.75000244 58.39768555 68.50000488 57.79537109 68.24243164 57.17480469 C66.81062845 54.66851606 65.54535468 53.73672072 63.12109375 52.203125 C62.36505859 51.71972656 61.60902344 51.23632812 60.83007812 50.73828125 C60.04052734 50.24714844 59.25097656 49.75601563 58.4375 49.25 C57.64408203 48.74339844 56.85066406 48.23679687 56.03320312 47.71484375 C52.73917611 45.22860554 52.73917611 45.22860554 49 44 Z M-8.375 17.8125 C-8.91125 18.204375 -9.4475 18.59625 -10 19 C-9.71125 19.86625 -9.4225 20.7325 -9.125 21.625 C-9.08375 22.73875 -9.0425 23.8525 -9 25 C-11.625 27.8125 -11.625 27.8125 -13.30078125 29.29296875 C-22.20072568 38.23383246 -21.29907093 49.52297491 -21.3190918 61.22924805 C-21.2289513 70.2950557 -20.31053262 77.52765007 -17 86 C-16.26725811 88.31136964 -15.53832038 90.62394753 -14.8125 92.9375 C-11.57901627 102.51744868 -7.82374459 111.90195733 -4.07788086 121.29101562 C-3.36866932 123.07344174 -2.66616241 124.85855267 -1.97094727 126.64648438 C0.07692522 131.8786614 2.34929265 136.89030436 4.9375 141.875 C8.29337995 148.4641636 11.25132111 155.13293019 14 162 C14.91337572 164.20969651 15.83000172 166.41805255 16.75 168.625 C17.15734375 169.60726562 17.5646875 170.58953125 17.984375 171.6015625 C18.61324477 173.08666264 19.27875114 174.55750227 20 176 C24.82352675 174.40540465 29.63335012 172.78345738 34.42578125 171.09765625 C47.18872466 166.65870021 59.70234882 163.34430703 73 161 C73.6904541 160.82581543 74.3809082 160.65163086 75.09228516 160.47216797 C77.43943305 159.89123835 79.71383689 159.73472594 82.125 159.5625 C87.52121724 159.11221 92.71976752 158.17974825 98 157 C97.75390625 159.35546875 97.75390625 159.35546875 97 162 C95.15234375 163.36328125 95.15234375 163.36328125 92.9375 164.3125 C92.20402344 164.63863281 91.47054687 164.96476563 90.71484375 165.30078125 C90.14894531 165.53152344 89.58304687 165.76226562 89 166 C89 166.66 89 167.32 89 168 C89.56847656 167.7834375 90.13695312 167.566875 90.72265625 167.34375 C95.7242219 165.54018042 99.68962036 164.6610396 105 165 C104.71484375 166.91015625 104.71484375 166.91015625 104 169 C102.13362393 169.78048454 100.2551207 170.53995977 98.3359375 171.1796875 C87.44815286 175.00315702 77.1863722 181.61192046 67 187 C67 189.31 67 191.62 67 194 C65.700625 194.0825 64.40125 194.165 63.0625 194.25 C54.586571 195.22286606 48.4946953 198.51907734 43 205 C43 205.66 43 206.32 43 207 C42.34 207 41.68 207 41 207 C41 208.65 41 210.3 41 212 C40.34 212.185625 39.68 212.37125 39 212.5625 C34.67235716 214.63616219 31.53005205 217.79336403 28 221 C26.01560747 222.68652388 24.00891889 224.34264192 22 226 C22.495 228.475 22.495 228.475 23 231 C24.32 231 25.64 231 27 231 C26.84765625 233.23828125 26.84765625 233.23828125 26 236 C23.49609375 238.16796875 23.49609375 238.16796875 20.4375 240.1875 C18.59528457 241.41486136 16.77405834 242.67603224 15 244 C15 244.66 15 245.32 15 246 C14.34 246.33 13.68 246.66 13 247 C14.58272601 248.58272601 16.38034003 248.34735747 18.5625 248.5625 C19.38878906 248.64628906 20.21507812 248.73007812 21.06640625 248.81640625 C21.70449219 248.87699219 22.34257813 248.93757812 23 249 C23.495 251.475 23.495 251.475 24 254 C22.948125 253.979375 21.89625 253.95875 20.8125 253.9375 C17.67295096 253.98896802 15.03116604 254.26517187 12 255 C14.47471288 257.47471288 16.33125506 257.8423677 19.6875 258.8125 C24.75199459 260.30997514 29.75480959 261.91611907 34.75 263.625 C41.47276669 265.87979791 47.85078638 268 55 268 C57.52884446 265.79509915 57.52884446 265.79509915 60 263 C60.85078125 262.17242187 61.7015625 261.34484375 62.578125 260.4921875 C68.86535913 254.33363945 74.57833209 247.95029233 80 241 C80.48082031 240.4328125 80.96164063 239.865625 81.45703125 239.28125 C85.03263007 234.83161592 86.89704434 229.63448194 88.8581543 224.32910156 C90.19102014 220.76687253 91.619988 217.95405283 94 215 C94.677782 213.70370971 95.32467235 212.39073161 95.9375 211.0625 C97.58457992 207.66023066 99.49902769 204.85825407 102 202 C107.75 202.875 107.75 202.875 110 204 C112.78646552 208.09834162 112.66613313 213.09977789 113.03515625 217.89257812 C113.64596428 223.98337143 115.4691592 228.82066486 120.25 232.9375 C120.8275 233.288125 121.405 233.63875 122 234 C122.33 233.01 122.66 232.02 123 231 C125.4375 231.375 125.4375 231.375 128 232 C128.33 232.66 128.66 233.32 129 234 C130.2065625 234.185625 130.2065625 234.185625 131.4375 234.375 C132.283125 234.58125 133.12875 234.7875 134 235 C134.70930847 236.31114596 135.36515045 237.65122712 136 239 C137.35228278 240.99475737 138.73047315 242.97204317 140.125 244.9375 C145.63819581 252.79170083 150.70100325 260.90149853 155.4375 269.25 C156.74368836 271.8321821 156.74368836 271.8321821 158 273 C164.63162573 272.8646607 168.00297458 270.10231991 173 266 C174.41257454 264.95279082 175.82916346 263.91097173 177.25 262.875 C179.41051792 261.26511991 181.2404616 259.752466 183.125 257.8125 C185.48583689 255.53035768 188.02815695 254.35083775 191 253 C191 252.34 191 251.68 191 251 C191.61875 250.7525 192.2375 250.505 192.875 250.25 C195.48998244 248.71177504 196.06708246 247.87649576 197 245 C197.58342353 241.54230809 197.58342353 241.54230809 197 238 C194.93973281 235.35418376 194.93973281 235.35418376 192 233 C190.86399016 231.90716393 189.73963201 230.80213201 188.625 229.6875 C187.73941406 228.80771484 187.73941406 228.80771484 186.8359375 227.91015625 C184.28189618 225.25286645 181.92512292 222.44208802 179.578125 219.6015625 C177.98558859 217.74308837 177.98558859 217.74308837 175 217 C173.984375 215.19921875 173.984375 215.19921875 173 213 C171.59471614 210.78625464 170.12276277 208.62536816 168.6484375 206.45703125 C167.54131887 204.80684733 166.46330503 203.13679356 165.4140625 201.44921875 C164.90617188 200.64097656 164.39828125 199.83273438 163.875 199 C163.19050781 197.88625 163.19050781 197.88625 162.4921875 196.75 C160.74020408 194.69531787 159.6324392 194.36153671 157 194 C157 193.34 157 192.68 157 192 C154.82300127 190.31506263 152.64488281 188.73805375 150.375 187.1875 C146.71620639 184.66300879 143.1229501 182.15888552 139.75 179.2578125 C136.87745608 176.89938866 134.56804371 175.93448764 131 175 C130.67 172.03 130.34 169.06 130 166 C141.75122769 165.47643045 151.70867367 166.67496313 163 170 C179.48169873 174.80319438 197.72526937 179.76472264 215 179 C217.31258233 177.2897647 218.34843915 175.42876595 220 173 C220 172.34 220 171.68 220 171 C220.66 171 221.32 171 222 171 C226.40285838 166.7333125 230.03450522 161.69377303 233.64453125 156.7578125 C235.26270305 154.65931881 237.12890855 152.87109145 239 151 C239 150.34 239 149.68 239 149 C239.58910156 148.75765625 240.17820312 148.5153125 240.78515625 148.265625 C243.40992437 146.7657575 244.65005152 145.17729724 246.4375 142.75 C248.53359577 139.94466492 250.64022302 137.2056738 252.9375 134.5625 C255.20900314 132.28856683 255.20900314 132.28856683 255 130 C255.66 130 256.32 130 257 130 C263.12772242 124.05684753 265.91413925 115.74971846 269 108 C269.37125 107.10796875 269.7425 106.2159375 270.125 105.296875 C274.19593011 95.43759114 277.31331522 85.31340285 280 75 C280.42152344 73.49566406 280.42152344 73.49566406 280.8515625 71.9609375 C282.51509193 65.81987091 283.47072722 60.35481747 283 54 C283 53.071875 283 52.14375 283 51.1875 C281.51836984 47.94643403 279.06291709 47.14685667 275.91015625 45.69921875 C274.02599755 44.88541775 274.02599755 44.88541775 272 45 C271.525625 45.474375 271.05125 45.94875 270.5625 46.4375 C269 48 269 48 266 49 C266 48.34 266 47.68 266 47 C258.02034969 43.71633859 252.29682818 44.15980606 244 46 C242.12762962 46.34780064 240.2524973 46.68103292 238.375 47 C237.38757813 47.16886719 236.40015625 47.33773437 235.3828125 47.51171875 C232.84652244 47.87781143 230.35371649 48.16806556 227.8046875 48.39453125 C204.05808643 50.52494208 179.19636185 60.22766504 161 76 C159.61558 77.96498322 158.28796166 79.97048465 157 82 C156.09260429 83.21531076 155.17510342 84.42311361 154.25 85.625 C153.1630729 87.0806568 152.08009975 88.53927013 151 90 C150.01580078 91.31291016 150.01580078 91.31291016 149.01171875 92.65234375 C144.18664273 99.42198901 141.53433962 105.64507469 139.16015625 113.5 C137.86843406 117.39691274 136.17938502 120.69636644 134.015625 124.16796875 C132.94527591 126.09871385 132.43959636 127.84502217 132 130 C130.35 130 128.7 130 127 130 C127 130.99 127 131.98 127 133 C124.03 132.34 121.06 131.68 118 131 C117.67 131.66 117.34 132.32 117 133 C115.68 132.67 114.36 132.34 113 132 C112.896875 131.29875 112.79375 130.5975 112.6875 129.875 C111.0876189 123.18458815 106.96274918 117.91738866 103 112.4375 C97.31752671 104.5383131 97.31752671 104.5383131 95.41015625 101.3046875 C93.68358368 98.48286529 91.64823109 96.14589124 89.4375 93.6875 C88.65246094 92.80449219 87.86742187 91.92148438 87.05859375 91.01171875 C85.24132186 88.76702761 85.24132186 88.76702761 83 89 C82.773125 88.4225 82.54625 87.845 82.3125 87.25 C80.67083893 84.43572387 78.56440947 82.97262267 76 81 C75.67 80.34 75.34 79.68 75 79 C74.34 79 73.68 79 73 79 C72.01 77.02 72.01 77.02 71 75 C70.34 75 69.68 75 69 75 C68.690625 74.20335938 68.690625 74.20335938 68.375 73.390625 C66.42038808 69.99226564 63.77876283 67.48944072 61 64.75 C60.4534375 64.19570312 59.906875 63.64140625 59.34375 63.0703125 C56.67399232 60.00784225 56.67399232 60.00784225 53 59 C52.67 58.01 52.34 57.02 52 56 C50.26773725 54.39187335 48.4654991 52.85802684 46.625 51.375 C45.64789063 50.57835937 44.67078125 49.78171875 43.6640625 48.9609375 C41.09857408 46.86191304 41.09857408 46.86191304 38 46 C38 45.34 38 44.68 38 44 C36.28668011 42.18932626 36.28668011 42.18932626 34.125 40.375 C33.40570313 39.74335937 32.68640625 39.11171875 31.9453125 38.4609375 C30.13893067 36.79982877 30.13893067 36.79982877 28 37 C28 36.34 28 35.68 28 35 C23.54421533 29.98545133 18.12130143 27.41829192 12 25 C9.93621081 24.14895291 7.87375896 23.29465719 5.8125 22.4375 C4.79800781 22.02242187 3.78351562 21.60734375 2.73828125 21.1796875 C0.55900947 20.24082862 -1.44630735 19.23752415 -3.5 18.0625 C-5.9566637 16.68981902 -5.9566637 16.68981902 -8.375 17.8125 Z M122 93 C123 96 123 96 123 96 Z M-37 101 C-38.28799977 103.57599954 -38.14110982 105.44443206 -38.16113281 108.32910156 C-38.17074036 109.44496643 -38.1803479 110.5608313 -38.19024658 111.71051025 C-38.19449646 112.92494812 -38.19874634 114.13938599 -38.203125 115.390625 C-38.20882507 116.64196228 -38.21452515 117.89329956 -38.22039795 119.18255615 C-38.22986551 121.84244415 -38.23675156 124.50221894 -38.24023438 127.16210938 C-38.24459058 129.86602487 -38.25836556 132.56961616 -38.28125 135.2734375 C-38.31200961 139.18759724 -38.32231887 143.10135718 -38.328125 147.015625 C-38.3404718 148.20577209 -38.3528186 149.39591919 -38.36553955 150.62213135 C-38.33973203 160.54313095 -37.30766387 170.91949896 -33 180 C-30.70370006 181.14814997 -28.92301914 181.30769809 -26.375 181.5625 C-25.14910156 181.68818359 -25.14910156 181.68818359 -23.8984375 181.81640625 C-23.27195312 181.87699219 -22.64546875 181.93757813 -22 182 C-21.34 183.65 -20.68 185.3 -20 187 C-20.99 187.495 -20.99 187.495 -22 188 C-19.87562788 188.19448477 -17.75046809 188.38038289 -15.625 188.5625 C-14.44164063 188.66691406 -13.25828125 188.77132812 -12.0390625 188.87890625 C-9.08101369 189.24153596 -9.08101369 189.24153596 -7 188 C-8.31061591 183.76570244 -9.94356259 179.92592596 -12 176 C-12.66 176 -13.32 176 -14 176 C-14.28230469 175.28070313 -14.56460938 174.56140625 -14.85546875 173.8203125 C-15.94433454 171.13716882 -17.10638427 168.50723954 -18.3125 165.875 C-19.20833333 163.91666667 -20.10416667 161.95833333 -21 160 C-21.38124023 159.2059375 -21.76248047 158.411875 -22.15527344 157.59375 C-25.28931961 150.94966729 -27.66341116 144.32538825 -29.625 137.25 C-29.92349854 136.18467041 -30.22199707 135.11934082 -30.52954102 134.02172852 C-33.44299674 123.15171249 -34.9280953 112.18571581 -36 101 C-36.33 101 -36.66 101 -37 101 Z M-21 143 C-20 145 -20 145 -20 145 Z M-20 145 C-19 148 -19 148 -19 148 Z M-19 148 C-18.34 149.32 -17.68 150.64 -17 152 C-17.33 150.68 -17.66 149.36 -18 148 C-18.33 148 -18.66 148 -19 148 Z M-13 162 C-12 164 -12 164 -12 164 Z M240 177 C239.01 177.99 238.02 178.98 237 180 C237.33 180.66 237.66 181.32 238 182 C239.32 181.67 240.64 181.34 242 181 C241.34 179.68 240.68 178.36 240 177 Z M205 226 C204.67 226.66 204.34 227.32 204 228 C207.465 229.98 207.465 229.98 211 232 C209.95125002 229.37812506 209.35068687 228.20628639 206.875 226.75 C205.946875 226.37875 205.946875 226.37875 205 226 Z M221 244 C218.37402417 245.19212694 218.37402417 245.19212694 216 247 C215.67 247.99 215.34 248.98 215 250 C218.37503669 248.8141763 220.64722731 247.72426311 223 245 C222.34 244.67 221.68 244.34 221 244 Z M-6 265 C-6.23539069 267.11247636 -6.23539069 267.11247636 -4.5234375 268.48046875 C4.64376763 275.76422991 14.95431833 282.19428519 27 282 C26.07942236 279.5825174 26.07942236 279.5825174 22.5703125 278.7734375 C21.08893275 278.30605031 19.60713501 277.83998662 18.125 277.375 C11.1159922 275.06854487 5.92176315 272.3531015 0.19921875 267.63671875 C-1.95216199 266.03560236 -3.38117702 265.41349837 -6 265 Z " fill="#FFFFFF" transform="translate(47,33)"/>
<path d="" fill="#FFFFFF" transform="translate(0,0)"/>
</svg>
