<?xml version="1.0" encoding="UTF-8"?>
<svg version="1.1" xmlns="http://www.w3.org/2000/svg" width="350" height="350">
<path d="M0 0 C12.57405159 1.88581354 25.17837762 2.26787089 37.84472656 1.36962891 C43.85051901 0.9677011 49.59567886 1.19251555 55.59033203 1.72192383 C61.50974398 2.20468269 67.44016083 2.37128203 73.375 2.5625 C75.29070801 2.6251001 75.29070801 2.6251001 77.24511719 2.68896484 C93.24067787 3.18920896 109.20387147 3.33287244 125.125 1.4375 C132.28787879 0.62878788 132.28787879 0.62878788 136 1 C137.6953125 3.01953125 137.6953125 3.01953125 139 5 C139.85996582 4.81824219 139.85996582 4.81824219 140.73730469 4.6328125 C168.43575215 -1.14464144 168.43575215 -1.14464144 174.28515625 2.375 C176 4 176 4 176.375 6.4375 C175.99615037 9.02630579 175.3263279 10.76182166 174 13 C174.99 13.33 175.98 13.66 177 14 C179.19038423 12.62831762 179.19038423 12.62831762 181 11 C181.433125 11.495 181.86625 11.99 182.3125 12.5 C183.99740483 14.33218192 183.99740483 14.33218192 187 14 C186.85691406 12.95199219 186.85691406 12.95199219 186.7109375 11.8828125 C186.60007812 10.97273438 186.48921875 10.06265625 186.375 9.125 C186.20097656 7.76761719 186.20097656 7.76761719 186.0234375 6.3828125 C186.01570313 5.59648438 186.00796875 4.81015625 186 4 C186.66 3.34 187.32 2.68 188 2 C189.984375 2.12890625 189.984375 2.12890625 192 3 C193.265625 4.77734375 193.265625 4.77734375 194.25 6.9375 C194.58515625 7.64777344 194.9203125 8.35804687 195.265625 9.08984375 C196 11 196 11 196 13 C196.82564453 12.54173828 196.82564453 12.54173828 197.66796875 12.07421875 C204.08741615 9.11718686 211.15608712 8.47913047 218 10 C217.67 11.65 217.34 13.3 217 15 C212.01716284 16.14051606 207.05531868 17.22225866 202 18 C202.680625 18.70125 203.36125 19.4025 204.0625 20.125 C206 23 206 23 205.5625 26.125 C205.376875 27.07375 205.19125 28.0225 205 29 C205.97442014 30.02494165 206.9792058 31.02123588 208 32 C209.13500977 34.11303711 209.13500977 34.11303711 210.19140625 36.52734375 C210.57876953 37.40197266 210.96613281 38.27660156 211.36523438 39.17773438 C211.76033203 40.08845703 212.15542969 40.99917969 212.5625 41.9375 C213.35485936 43.73854947 214.14780687 45.53934033 214.94140625 47.33984375 C215.28888916 48.13769287 215.63637207 48.93554199 215.99438477 49.75756836 C216.32623779 50.4975708 216.65809082 51.23757324 217 52 C217.3105835 52.71486572 217.62116699 53.42973145 217.94116211 54.16625977 C219.00684746 56.32463932 219.00684746 56.32463932 222 58 C222.4765625 60.94140625 222.4765625 60.94140625 222.625 64.5625 C222.68945312 65.82449219 222.75390625 67.08648437 222.8203125 68.38671875 C222.87960937 69.57910156 222.93890625 70.77148438 223 72 C223.34468115 75.76369575 223.78854764 79.51209741 224.3203125 83.25390625 C225.09545455 88.80909091 225.09545455 88.80909091 224 91 C224.25080375 92.92571152 224.57446005 94.84226067 224.9375 96.75 C226.9143898 107.1712204 226.9143898 107.1712204 225 111 C224.01 111 223.02 111 222 111 C222.01160156 112.02996094 222.02320313 113.05992187 222.03515625 114.12109375 C222.10963372 123.62599893 221.84978989 133.04544586 221.17089844 142.52783203 C220.98446739 145.22469034 220.82474752 147.92258395 220.6640625 150.62109375 C219.60519807 167.17740287 217.37449357 183.47698743 214.90621948 199.86843872 C214.01598604 205.8078258 213.21373478 211.75672533 212.43505859 217.71166992 C210.77820212 230.23478992 208.4152667 242.60549816 206 255 C207.65 255.99 209.3 256.98 211 258 C208.74223284 263.19664844 206.81796019 266.74787687 202 270 C200.9171875 270.86625 200.9171875 270.86625 199.8125 271.75 C198 273 198 273 196 273 C196 273.66 196 274.32 196 275 C194.86820312 275.54269531 193.73640625 276.08539063 192.5703125 276.64453125 C191.0883339 277.36676133 189.60657437 278.08944105 188.125 278.8125 C187.37863281 279.16892578 186.63226563 279.52535156 185.86328125 279.89257812 C185.14785156 280.24384766 184.43242187 280.59511719 183.6953125 280.95703125 C182.7055542 281.43619995 182.7055542 281.43619995 181.69580078 281.92504883 C179.67807583 283.04329617 179.67807583 283.04329617 178 286 C176.00854609 287.01691264 174.00812926 288.01642648 172 289 C171.2575 289.804375 171.2575 289.804375 170.5 290.625 C168.16006984 292.76993598 166.11658111 292.8166717 163 293 C159.6875 292.1875 159.6875 292.1875 157 291 C156.67 290.34 156.34 289.68 156 289 C155.67 289.66 155.34 290.32 155 291 C153.03808594 291.48657227 153.03808594 291.48657227 150.484375 291.81640625 C149.56269531 291.94080078 148.64101563 292.06519531 147.69140625 292.19335938 C146.23541016 292.37608398 146.23541016 292.37608398 144.75 292.5625 C142.8488073 292.81265693 140.94776032 293.06392426 139.046875 293.31640625 C137.77602051 293.47798218 137.77602051 293.47798218 136.47949219 293.64282227 C133.96242127 294.00541332 131.49263999 294.49847119 129 295 C127.45777587 295.23029581 125.91333122 295.44612329 124.3671875 295.6484375 C123.04763062 295.82366943 123.04763062 295.82366943 121.70141602 296.00244141 C120.76869873 296.12538574 119.83598145 296.24833008 118.875 296.375 C109.22471036 297.66642281 99.60950784 299.1214183 90.00048828 300.68847656 C88.01262652 300.99803375 86.02213765 301.2628723 84.02734375 301.5234375 C81.12833445 301.6754833 81.12833445 301.6754833 80 303 C76.33651654 303.70847531 72.73228133 304.11009679 69 304 C66.8125 302.0625 66.8125 302.0625 65 300 C63.12538348 299.95753983 61.249256 299.92948671 59.37475586 299.97680664 C55.02393501 300.01929949 50.70558868 299.57134007 46.375 299.1875 C45.38314697 299.10129395 44.39129395 299.01508789 43.36938477 298.92626953 C35.27020328 298.18829437 27.22682915 297.16122629 19.18310547 295.96557617 C15.67356592 295.45179967 12.36976606 294.99546299 8.81640625 295.0390625 C6 295 6 295 2.76904297 294.03979492 C-0.94795099 293.01435916 -4.28171175 292.59053873 -8.12109375 292.32421875 C-9.47501305 292.22099071 -10.82885203 292.11670478 -12.18261719 292.01147461 C-13.22645569 291.93290726 -13.22645569 291.93290726 -14.29138184 291.85275269 C-25.19904574 291.0128545 -35.44143071 289.94353659 -45.7734375 286.140625 C-51.219332 284.21544195 -57.19722813 283 -63 283 C-62.67515625 284.01320313 -62.67515625 284.01320313 -62.34375 285.046875 C-61.92609375 286.38492188 -61.92609375 286.38492188 -61.5 287.75 C-61.2215625 288.63171875 -60.943125 289.5134375 -60.65625 290.421875 C-60 293 -60 293 -60 297 C-62.5 298.75 -62.5 298.75 -65 300 C-68.71069698 296.00386479 -70.59791618 293.62917348 -71 288 C-71.66 288 -72.32 288 -73 288 C-73.33 286.35 -73.66 284.7 -74 283 C-74.99 282.67 -75.98 282.34 -77 282 C-80.65804716 276.28511494 -81.95220267 269.60388056 -83 263 C-84.32 262.67 -85.64 262.34 -87 262 C-87 259.03 -87 256.06 -87 253 C-89.31 252.67 -91.62 252.34 -94 252 C-93.88496731 249.4783624 -93.75825223 246.9581881 -93.625 244.4375 C-93.5940625 243.73302734 -93.563125 243.02855469 -93.53125 242.30273438 C-93.27169539 237.6091219 -92.42877973 233.50859381 -91 229 C-86.58971749 215.53561648 -86.58971749 215.53561648 -87 202 C-86.58203125 199.86328125 -86.58203125 199.86328125 -85.8125 197.3125 C-84.49447306 192.77065039 -83.3025644 188.2211268 -82.1875 183.625 C-80.86025629 178.18768785 -79.37465419 172.81798204 -77.78173828 167.45263672 C-74.90866784 157.74951875 -72.70436927 148.09066459 -70.95703125 138.125 C-70.27305953 134.27299907 -69.42144508 130.48456796 -68.51171875 126.6796875 C-66.99219921 120.19956487 -65.93002048 113.71264509 -65 107.125 C-64.83338867 105.96460205 -64.66677734 104.8042041 -64.49511719 103.60864258 C-64.15574155 101.22895745 -63.81945735 98.84882931 -63.48632812 96.46826172 C-63.02623094 93.18706665 -62.55266177 89.9080375 -62.078125 86.62890625 C-59.70907218 71.36882013 -59.70907218 71.36882013 -60 56 C-61.83883881 53.71271266 -61.83883881 53.71271266 -64.625 53.875 C-65.40875 53.91625 -66.1925 53.9575 -67 54 C-68.48453496 49.54639513 -66.8933066 46.18200252 -65 42 C-63.68505488 40.64852862 -62.35735142 39.30887458 -61 38 C-61.33820153 35.98045559 -61.33820153 35.98045559 -62 34 C-61.00974907 31.33393981 -60.5722047 30.28610235 -58 29 C-57.60661452 26.01962537 -57.60661452 26.01962537 -57.5 22.5625 C-57.22158439 16.22158439 -57.22158439 16.22158439 -55 14 C-51.19953261 12.47981304 -48.09053942 11.75938003 -44 12 C-44 12.66 -44 13.32 -44 14 C-43.22914062 13.855625 -42.45828125 13.71125 -41.6640625 13.5625 C-40.66117188 13.376875 -39.65828125 13.19125 -38.625 13 C-37.62726563 12.814375 -36.62953125 12.62875 -35.6015625 12.4375 C-33 12 -33 12 -31 12 C-29.64680502 11.41925382 -28.31514882 10.78740951 -27 10.125 C-25.948125 9.60292969 -25.948125 9.60292969 -24.875 9.0703125 C-22.84503954 8.0207398 -22.84503954 8.0207398 -21 6 C-18.68234271 5.28072705 -16.34904126 4.6090107 -14 4 C-14 3.34 -14 2.68 -14 2 C-8.81713963 -0.89275927 -5.67461033 -1.89153678 0 0 Z M155.52734375 7.875 C154.62822266 8.05546875 153.72910156 8.2359375 152.80273438 8.421875 C151.85720703 8.61265625 150.91167969 8.8034375 149.9375 9 C148.98810547 9.19078125 148.03871094 9.3815625 147.06054688 9.578125 C144.70685787 10.05122832 142.35335243 10.52522575 140 11 C140 11.33 140 11.66 140 12 C142.35448675 12.05454409 144.70767875 12.0939279 147.0625 12.125 C148.37347656 12.14820313 149.68445313 12.17140625 151.03515625 12.1953125 C155.11824299 11.99417522 158.14999053 11.27165462 162 10 C161.67 9.01 161.34 8.02 161 7 C159.1489659 7 157.33536406 7.5111217 155.52734375 7.875 Z M0 16 C0 16.66 0 17.32 0 18 C3.93075644 17.42547254 3.93075644 17.42547254 7 15 C3.10540926 14.78918149 3.10540926 14.78918149 0 16 Z M20.125 17.1875 C19.06941895 17.50702637 18.01383789 17.82655273 16.92626953 18.15576172 C11.77681758 19.74124878 6.78198361 21.37955282 1.875 23.625 C-4.37326071 26.45754485 -10.99857814 27.73500565 -17.70556641 29.03759766 C-23.329968 30.22502924 -26.17943948 31.48177191 -30 36 C-31.08667969 36.70640625 -32.17335937 37.4128125 -33.29296875 38.140625 C-36.77763366 41.8213966 -36.60491801 43.79828602 -36.47607422 48.70361328 C-36.42209473 49.7089209 -36.36811523 50.71422852 -36.3125 51.75 C-36.25454957 53.90873645 -36.20131642 56.06760372 -36.15234375 58.2265625 C-36.12124512 59.34063477 -36.09014648 60.45470703 -36.05810547 61.60253906 C-35.8156612 75.77839798 -36.5675691 90.03130324 -39 104 C-39.67601919 108.12349736 -40.33745964 112.24931864 -41 116.375 C-41.17692383 117.46546631 -41.35384766 118.55593262 -41.53613281 119.67944336 C-42.49414037 125.63207256 -43.35908206 131.57458094 -44.0625 137.5625 C-45.95910877 153.15326703 -49.73414145 167.80808622 -54.09472656 182.87109375 C-54.95343891 185.83907042 -55.80301555 188.80946376 -56.6484375 191.78125 C-57.87623258 196.09657731 -59.11047913 200.4100106 -60.34765625 204.72265625 C-60.95281933 206.83529144 -61.55529847 208.94866351 -62.15625 211.0625 C-62.81360294 213.37319517 -63.47349082 215.68317175 -64.13671875 217.9921875 C-64.68776723 219.91213016 -65.23267568 221.83385295 -65.76953125 223.7578125 C-66.9787386 227.98680504 -68.35110049 231.80752138 -70.3125 235.75 C-71.73370965 238.84194465 -72.06086059 239.66188559 -71.4375 243.125 C-70.963125 244.07375 -70.48875 245.0225 -70 246 C-68.33007846 249.75732347 -66.85664062 253.31025777 -65.9375 257.3125 C-65.3322474 261.00846953 -65.3322474 261.00846953 -63 263 C-61.07048792 263.46458739 -61.07048792 263.46458739 -58.875 263.625 C-58.15054688 263.69976562 -57.42609375 263.77453125 -56.6796875 263.8515625 C-54.51726184 263.97134701 -52.34927893 263.98817293 -50.18359375 263.97265625 C-46.14605911 263.95574708 -42.19317535 264.33581959 -38.1875 264.8125 C-28.53464447 265.8934996 -18.86480492 266.73714757 -9.1875 267.5625 C-8.44309662 267.62643951 -7.69869324 267.69037903 -6.93173218 267.7562561 C-1.95545672 268.18313828 3.0210297 268.60568068 8 269 C9.04150208 269.08757568 10.08300415 269.17515137 11.15606689 269.26538086 C19.36041855 269.91475591 27.46875269 270.09535549 35.6953125 269.9921875 C38.22916285 269.974699 40.76301725 269.95778813 43.296875 269.94140625 C47.23611834 269.91027575 51.17515614 269.87441679 55.11425781 269.82861328 C58.95380291 269.7864361 62.79310001 269.76290452 66.6328125 269.7421875 C68.40617477 269.71425613 68.40617477 269.71425613 70.21536255 269.6857605 C71.3110556 269.68230621 72.40674866 269.67885193 73.53564453 269.67529297 C74.97787888 269.66077591 74.97787888 269.66077591 76.44924927 269.64596558 C79.47944057 270.06654451 80.81632391 270.8845529 83 273 C83.33 273.99 83.66 274.98 84 276 C91.59 276 99.18 276 107 276 C107 276.66 107 277.32 107 278 C118.16001178 278.17808529 129.04987635 277.25369981 140.125 276 C140.87225342 275.9170166 141.61950684 275.8340332 142.3894043 275.74853516 C146.31936912 275.33494439 146.31936912 275.33494439 150 274 C150 273.34 150 272.68 150 272 C150.52335938 271.78472656 151.04671875 271.56945312 151.5859375 271.34765625 C154.96795631 269.45963604 157.7133171 266.9754736 160.625 264.4375 C166.76013514 259.11993243 166.76013514 259.11993243 169 258 C169 257.34 169 256.68 169 256 C169.67804688 255.7834375 170.35609375 255.566875 171.0546875 255.34375 C174.89655432 253.59096196 177.86583637 251.15536068 181.125 248.5 C182.35605456 247.50952575 183.58780055 246.51991013 184.8203125 245.53125 C185.35930176 245.09361328 185.89829102 244.65597656 186.45361328 244.20507812 C187.91615173 243.06534182 189.45722134 242.02851911 191 241 C191 240.34 191 239.68 191 239 C191.66 238.67 192.32 238.34 193 238 C192.67 236.68 192.34 235.36 192 234 C190.02 236.64 188.04 239.28 186 242 C184.68 241.67 183.36 241.34 182 241 C182.64744862 231.38832051 183.89901663 221.89702139 185.3125 212.375 C185.42360107 211.62133148 185.53470215 210.86766296 185.64916992 210.09115601 C187.19082928 199.68867983 188.97274941 189.41954189 191.47753906 179.20263672 C192.29708387 175.74752773 193.01875865 172.27230516 193.75463867 168.79858398 C195.92264713 158.58138553 198.3212988 148.44167284 200.94482422 138.33154297 C203.86182244 126.97277947 205.31160145 116.30577624 205.5625 104.5625 C205.62337982 102.0845619 205.6871513 99.60669304 205.75390625 97.12890625 C205.78331299 95.93410645 205.81271973 94.73930664 205.84301758 93.50830078 C205.99420874 90.12942511 206.34329788 86.82307923 206.734375 83.46484375 C207.17145707 78.61893383 206.71811218 75.98413145 203.6875 72 C203.05199219 71.13375 202.41648437 70.2675 201.76171875 69.375 C201.18035156 68.59125 200.59898437 67.8075 200 67 C199.29975799 65.68398961 198.61851641 64.35634055 198 63 C197.34 63 196.68 63 196 63 C195.566875 61.6078125 195.566875 61.6078125 195.125 60.1875 C194.1125 56.90208333 194.1125 56.90208333 192 54 C191.34 54 190.68 54 190 54 C189.773125 53.34 189.54625 52.68 189.3125 52 C187.6121185 48.11341372 185.60376916 44.36320183 183 41 C182.34 41 181.68 41 181 41 C180.9175 40.443125 180.835 39.88625 180.75 39.3125 C179.72505621 36.15225664 178.29861756 34.4078961 176 32 C164.08817844 27.02454628 151.03132532 26.67337492 138.33569336 27.484375 C128.92364099 28.02830435 119.54553002 28.11921214 110.11999702 28.07516479 C107.28595866 28.06207055 104.45196863 28.05580394 101.61790466 28.05102539 C94.58618637 28.03785477 87.55451528 28.01362681 80.52282715 27.98962402 C74.54919106 27.96966782 68.57557272 27.95412699 62.60191154 27.94406128 C59.85058643 27.93772273 57.09933873 27.92522365 54.34803772 27.91235352 C42.53561718 27.87854399 30.79123297 28.29954342 19 29 C18.505 27.02 18.505 27.02 18 25 C29.66471994 22.18067024 41.52741388 22.81117951 53.4375 22.9375 C56.58658742 22.96520599 59.73562738 22.98988036 62.88478088 23.00868225 C64.83252697 23.02085374 66.78024917 23.03837173 68.72789001 23.06199646 C72.98322325 23.09351133 76.83894569 22.99177875 81 22 C83.78075485 21.931911 86.53364739 21.90521664 89.3125 21.9375 C90.05306641 21.94201172 90.79363281 21.94652344 91.55664062 21.95117188 C93.37112899 21.96287825 95.18557534 21.98081102 97 22 C97 21.67 97 21.34 97 21 C93.03496768 20.44707031 89.06970962 19.89579021 85.10424805 19.34594727 C83.75913507 19.15921091 82.41408137 18.97204699 81.0690918 18.78442383 C71.92102554 17.50085092 71.92102554 17.50085092 62.74609375 16.43359375 C59 16 59 16 56 15 C53.87579846 15.20711907 53.87579846 15.20711907 51.5625 15.75 C50.68980469 15.93820313 49.81710938 16.12640625 48.91796875 16.3203125 C43.92880151 17.48244784 38.96052583 18.72151396 34 20 C33.01 18.515 33.01 18.515 32 17 C32.33 16.01 32.66 15.02 33 14 C28.63846014 14 24.26710789 15.92775682 20.125 17.1875 Z M-3 18 C-3 18.66 -3 19.32 -3 20 C-2.01 19.67 -1.02 19.34 0 19 C-0.99 18.67 -1.98 18.34 -3 18 Z M190 22 C190 22.66 190 23.32 190 24 C190.66 24 191.32 24 192 24 C192 23.34 192 22.68 192 22 C191.34 22 190.68 22 190 22 Z M-42 62 C-41 64 -41 64 -41 64 Z M-43 66 C-43.0501123 66.65371582 -43.10022461 67.30743164 -43.15185547 67.98095703 C-44.08747313 80.04639384 -45.02273752 92.05228629 -47 104 C-46.34 104.33 -45.68 104.66 -45 105 C-43.38853591 97.77475572 -42.43411596 90.62265436 -41.8125 83.25 C-41.71775391 82.24839844 -41.62300781 81.24679688 -41.52539062 80.21484375 C-41.09745691 75.28217263 -40.83206523 70.87053648 -42 66 C-42.33 66 -42.66 66 -43 66 Z M-47 107 C-46.34 107.66 -45.68 108.32 -45 109 C-45 108.34 -45 107.68 -45 107 C-45.66 107 -46.32 107 -47 107 Z M-47 113 C-46 116 -46 116 -46 116 Z M-52 147 C-51 151 -51 151 -51 151 Z M201 158 C200.90203125 158.69222656 200.8040625 159.38445312 200.703125 160.09765625 C199.5954573 167.3452406 197.90470219 174.28801819 195.953125 181.3515625 C194.68842257 186.19267756 193.78049234 191.06030509 193 196 C193.66 196 194.32 196 195 196 C195.19335938 195.26394531 195.38671875 194.52789062 195.5859375 193.76953125 C195.97652344 192.30580078 195.97652344 192.30580078 196.375 190.8125 C196.63023437 189.84957031 196.88546875 188.88664062 197.1484375 187.89453125 C198 185 198 185 199.03125 182.6328125 C200.30438559 179.1727585 200.71266814 175.70251156 201.125 172.0625 C201.25455078 171.02706055 201.25455078 171.02706055 201.38671875 169.97070312 C201.86587388 165.95872958 202.08848641 162.03877255 202 158 C201.67 158 201.34 158 201 158 Z M193 197 C194 199 194 199 194 199 Z M192 204 C193 207 193 207 193 207 Z M191 211 C192 214 192 214 192 214 Z M193 232 C194 234 194 234 194 234 Z M68 290 C72 291 72 291 72 291 Z " fill="#FFFFFF" transform="translate(109,30)"/>
<path d="M0 0 C2.81000664 0.21231161 5.54859699 0.08826758 8.3605957 -0.03662109 C22.36374274 -0.53565505 36.65634331 3.21527521 47.63671875 12.19921875 C49.05057871 13.26545076 50.4672338 14.32798688 51.88671875 15.38671875 C52.53125 15.88042969 53.17578125 16.37414062 53.83984375 16.8828125 C55.78299345 18.35424984 55.78299345 18.35424984 58.63671875 19.94921875 C59.29671875 20.36171875 59.95671875 20.77421875 60.63671875 21.19921875 C60.63671875 21.85921875 60.63671875 22.51921875 60.63671875 23.19921875 C61.29671875 23.19921875 61.95671875 23.19921875 62.63671875 23.19921875 C64.34780564 24.82024843 66.00925181 26.49425338 67.63671875 28.19921875 C68.39984375 28.92109375 69.16296875 29.64296875 69.94921875 30.38671875 C71.63671875 32.19921875 71.63671875 32.19921875 71.63671875 34.19921875 C72.29671875 34.19921875 72.95671875 34.19921875 73.63671875 34.19921875 C76.25567964 37.02769651 77.11062625 39.41135278 77.63671875 43.19921875 C78.29671875 43.19921875 78.95671875 43.19921875 79.63671875 43.19921875 C80.29833022 44.81785891 80.93999675 46.44465189 81.57421875 48.07421875 C82.11369141 49.43160156 82.11369141 49.43160156 82.6640625 50.81640625 C84.98305949 58.88167289 84.81867004 67.36505405 84.82421875 75.69921875 C84.83646484 76.66730469 84.84871094 77.63539063 84.86132812 78.6328125 C84.89024078 92.99276249 80.84604019 103.57110535 72.63671875 115.19921875 C72.16621094 115.89917969 71.69570312 116.59914063 71.2109375 117.3203125 C70.07493137 118.98578462 68.86260948 120.5987503 67.63671875 122.19921875 C66.97671875 122.19921875 66.31671875 122.19921875 65.63671875 122.19921875 C65.5696875 122.72644531 65.50265625 123.25367188 65.43359375 123.796875 C64.28855214 127.24883869 62.11425867 129.82010397 59.88671875 132.63671875 C59.45617187 133.19681641 59.025625 133.75691406 58.58203125 134.33398438 C47.82603111 148.13322407 30.030382 160.59831249 12.63671875 164.19921875 C11.90453125 164.37710938 11.17234375 164.555 10.41796875 164.73828125 C-6.01851002 167.46230442 -22.20770574 164.61397318 -36.01171875 155.10546875 C-39.58641968 152.20770454 -42.7854574 149.02636338 -45.36328125 145.19921875 C-45.36328125 144.53921875 -45.36328125 143.87921875 -45.36328125 143.19921875 C-46.02328125 143.19921875 -46.68328125 143.19921875 -47.36328125 143.19921875 C-47.36328125 142.53921875 -47.36328125 141.87921875 -47.36328125 141.19921875 C-48.04390625 141.03421875 -48.72453125 140.86921875 -49.42578125 140.69921875 C-58.95880325 135.83129262 -65.88571018 122.99541225 -69.36328125 113.19921875 C-70.49968109 109.22689254 -71.47843287 105.23457825 -72.36328125 101.19921875 C-72.53819092 100.4198999 -72.71310059 99.64058105 -72.89331055 98.83764648 C-73.35820065 96.22774135 -73.49254185 93.83544084 -73.49609375 91.1875 C-73.49738281 90.26517578 -73.49867187 89.34285156 -73.5 88.39257812 C-73.49613281 87.44189453 -73.49226563 86.49121094 -73.48828125 85.51171875 C-73.49214844 84.54943359 -73.49601562 83.58714844 -73.5 82.59570312 C-73.49871094 81.67724609 -73.49742188 80.75878906 -73.49609375 79.8125 C-73.49440186 78.55626831 -73.49440186 78.55626831 -73.49267578 77.2746582 C-73.36328125 75.19921875 -73.36328125 75.19921875 -72.36328125 73.19921875 C-72.11486787 71.57704948 -71.89010595 69.95124281 -71.67578125 68.32421875 C-68.51847244 49.22021257 -61.44870518 31.82601997 -49.87109375 16.27734375 C-48.27670462 14.16310579 -48.27670462 14.16310579 -46.875 11.55859375 C-42.31868914 4.44745225 -28.56771064 1.49042422 -20.796875 -0.4375 C-13.90231202 -1.46670443 -6.87245458 -0.95005207 0 0 Z M-31.36328125 9.19921875 C-32.68392578 9.76189453 -32.68392578 9.76189453 -34.03125 10.3359375 C-34.92457031 10.74457031 -35.81789063 11.15320313 -36.73828125 11.57421875 C-37.57101563 11.95320313 -38.40375 12.3321875 -39.26171875 12.72265625 C-41.87670668 14.5599526 -42.44722598 16.18932287 -43.36328125 19.19921875 C-44.02328125 19.19921875 -44.68328125 19.19921875 -45.36328125 19.19921875 C-46.56018986 20.7481049 -46.56018986 20.7481049 -47.67578125 22.77734375 C-48.11148438 23.52628906 -48.5471875 24.27523437 -48.99609375 25.046875 C-49.44726562 25.83964844 -49.8984375 26.63242188 -50.36328125 27.44921875 C-51.04003906 28.61517578 -51.04003906 28.61517578 -51.73046875 29.8046875 C-52.9573665 31.92816437 -54.17713359 34.05270769 -55.36328125 36.19921875 C-55.76160156 36.88209961 -56.15992187 37.56498047 -56.5703125 38.26855469 C-57.67352316 40.35673549 -57.67352316 40.35673549 -56.36328125 43.19921875 C-54.32330935 41.83598132 -54.32330935 41.83598132 -52.36328125 40.19921875 C-52.36328125 39.53921875 -52.36328125 38.87921875 -52.36328125 38.19921875 C-51.37328125 37.86921875 -50.38328125 37.53921875 -49.36328125 37.19921875 C-49.36328125 36.20921875 -49.36328125 35.21921875 -49.36328125 34.19921875 C-48.37328125 33.86921875 -47.38328125 33.53921875 -46.36328125 33.19921875 C-46.05390625 32.39484375 -45.74453125 31.59046875 -45.42578125 30.76171875 C-44.14162887 27.66464537 -43.30551897 27.53659953 -40.36328125 26.19921875 C-37.94042652 23.56475164 -37.94042652 23.56475164 -37.36328125 20.19921875 C-36.70328125 20.19921875 -36.04328125 20.19921875 -35.36328125 20.19921875 C-34.23511838 19.03686912 -33.10888663 17.8725862 -31.9921875 16.69921875 C-29.39358564 14.30626164 -26.42908748 12.51039333 -23.44921875 10.62890625 C-21.50701903 9.29773566 -19.96136505 7.91944908 -18.36328125 6.19921875 C-23.1755847 5.7480653 -27.03182128 7.32150467 -31.36328125 9.19921875 Z M8.63671875 31.19921875 C8.30671875 31.85921875 7.97671875 32.51921875 7.63671875 33.19921875 C8.74789062 33.57433594 9.8590625 33.94945312 11.00390625 34.3359375 C19.17084753 37.1319927 27.06307073 39.99370412 34.63671875 44.19921875 C34.63671875 45.51921875 34.63671875 46.83921875 34.63671875 48.19921875 C30.08435501 46.77862297 25.6547229 45.2683443 21.32421875 43.26171875 C10.61330298 38.3914243 -3.91741487 32.39876157 -15.80078125 35.921875 C-21.24950452 37.97345221 -26.83300297 40.47882262 -31.36328125 44.19921875 C-31.36328125 44.85921875 -31.36328125 45.51921875 -31.36328125 46.19921875 C-32.16765625 46.46734375 -32.97203125 46.73546875 -33.80078125 47.01171875 C-34.64640625 47.40359375 -35.49203125 47.79546875 -36.36328125 48.19921875 C-36.69328125 49.18921875 -37.02328125 50.17921875 -37.36328125 51.19921875 C-38.35328125 51.52921875 -39.34328125 51.85921875 -40.36328125 52.19921875 C-41.56923566 54.83311917 -42.56525222 57.34165856 -43.48828125 60.07421875 C-43.75253906 60.84781738 -44.01679687 61.62141602 -44.2890625 62.41845703 C-47.61586337 72.54873456 -47.79599411 80.83499827 -45.36328125 91.19921875 C-45.15574219 92.16859375 -44.94820312 93.13796875 -44.734375 94.13671875 C-43.05130533 101.52299023 -40.46037345 108.29502903 -37.36328125 115.19921875 C-36.70328125 115.19921875 -36.04328125 115.19921875 -35.36328125 115.19921875 C-34.70328125 116.84921875 -34.04328125 118.49921875 -33.36328125 120.19921875 C-32.70328125 120.19921875 -32.04328125 120.19921875 -31.36328125 120.19921875 C-31.12351562 120.78703125 -30.88375 121.37484375 -30.63671875 121.98046875 C-26.64069343 128.94286869 -17.64134142 132.30887701 -10.3125 134.4765625 C2.97116485 137.73150024 12.04560803 133.7670206 23.6015625 127.05859375 C25.42286722 125.94457351 25.42286722 125.94457351 27.63671875 124.19921875 C27.63671875 123.53921875 27.63671875 122.87921875 27.63671875 122.19921875 C28.29671875 122.19921875 28.95671875 122.19921875 29.63671875 122.19921875 C29.63671875 121.53921875 29.63671875 120.87921875 29.63671875 120.19921875 C30.29671875 120.19921875 30.95671875 120.19921875 31.63671875 120.19921875 C43.95119698 109.33350267 55.53171299 92.64882336 57.44921875 76.07421875 C57.53855105 74.45047278 57.60058986 72.82501885 57.63671875 71.19921875 C57.67539063 70.30460937 57.7140625 69.41 57.75390625 68.48828125 C58.29495603 57.72276075 58.29495603 57.72276075 53.96875 48.3828125 C51.92889442 46.80853324 49.86971291 45.48278291 47.63671875 44.19921875 C47.0540625 43.84472656 46.47140625 43.49023438 45.87109375 43.125 C44.14768582 42.10625653 42.39545905 41.15546348 40.63671875 40.19921875 C39.62158203 39.59787109 39.62158203 39.59787109 38.5859375 38.984375 C28.68034122 33.19584716 20.18849823 30.4734525 8.63671875 31.19921875 Z M-65.36328125 97.19921875 C-65.03328125 99.50921875 -64.70328125 101.81921875 -64.36328125 104.19921875 C-63.67168724 102.35196823 -63.67168724 102.35196823 -63.36328125 100.19921875 C-64.02328125 99.20921875 -64.68328125 98.21921875 -65.36328125 97.19921875 Z M-63.36328125 105.19921875 C-62.36328125 107.19921875 -62.36328125 107.19921875 -62.36328125 107.19921875 Z " fill="#FFFFFF" transform="translate(165.36328125,108.80078125)"/>
<path d="M0 0 C2.71166949 2.1524283 4.14547869 3.53018607 5.25390625 6.85546875 C5.55807691 12.08340205 4.77582517 16.2991723 3.25390625 21.29296875 C2.88265625 22.52917969 2.51140625 23.76539063 2.12890625 25.0390625 C1.84015625 25.96847656 1.55140625 26.89789063 1.25390625 27.85546875 C0.59390625 27.85546875 -0.06609375 27.85546875 -0.74609375 27.85546875 C-0.74609375 28.51546875 -0.74609375 29.17546875 -0.74609375 29.85546875 C-6.74050631 34.74091499 -12.78921383 39.40421909 -20.74609375 38.85546875 C-24.9149136 37.04635825 -26.88540621 35.17767258 -28.55859375 31.04296875 C-29.73412734 27.36512973 -30.28614842 23.68834652 -30.74609375 19.85546875 C-31.07609375 19.19546875 -31.40609375 18.53546875 -31.74609375 17.85546875 C-30.60566101 11.93220076 -28.53761137 7.62751454 -23.74609375 3.85546875 C-15.942413 -1.40269505 -8.97452695 -5.88263176 0 0 Z M-17.74609375 16.85546875 C-17.41609375 18.50546875 -17.08609375 20.15546875 -16.74609375 21.85546875 C-14.10609375 21.52546875 -11.46609375 21.19546875 -8.74609375 20.85546875 C-8.74609375 19.53546875 -8.74609375 18.21546875 -8.74609375 16.85546875 C-13.36117149 15.81332184 -13.36117149 15.81332184 -17.74609375 16.85546875 Z " fill="#FFFFFF" transform="translate(279.74609375,91.14453125)"/>
</svg>
