 <svg  version="1.0" xmlns="http://www.w3.org/2000/svg"  width="300.000000pt" height="234.000000pt" viewBox="0 0 300.000000 234.000000"  preserveAspectRatio="xMidYMid meet">  <g transform="translate(0.000000,234.000000) scale(0.100000,-0.100000)" fill="#000000" stroke="none"> <path d="M1749 2213 c-44 -23 -94 -52 -110 -64 -23 -16 -38 -20 -67 -14 -121 21 -199 20 -262 -4 -35 -13 -66 -19 -86 -15 -24 4 -38 0 -61 -20 -28 -24 -39 -26 -121 -26 -76 0 -101 -4 -163 -30 -60 -24 -98 -31 -199 -39 -118 -9 -183 -23 -205 -42 -16 -15 -31 -10 -45 15 -16 31 -45 38 -85 22 -30 -13 -32 -12 -43 14 -16 35 -62 56 -91 41 -25 -14 -66 -68 -76 -101 -4 -14 -13 -31 -19 -39 -8 -11 -8 -13 2 -7 7 4 12 2 12 -6 0 -8 -13 -22 -30 -31 -62 -37 -73 -66 -46 -118 12 -24 11 -33 -10 -85 -22 -55 -23 -62 -10 -101 8 -23 24 -52 35 -65 12 -12 21 -34 21 -49 0 -14 7 -32 15 -39 8 -7 15 -22 15 -34 0 -15 3 -17 9 -8 6 10 10 9 14 -7 4 -16 -4 -31 -29 -55 -19 -18 -34 -40 -34 -48 0 -9 -7 -21 -14 -28 -20 -16 -39 -76 -31 -99 3 -11 20 -28 38 -39 23 -13 33 -27 35 -48 2 -30 42 -74 67 -74 7 0 25 4 39 10 24 9 26 8 26 -21 0 -35 13 -62 49 -105 25 -28 29 -29 56 -18 25 10 26 12 10 16 -33 8 82 58 132 58 23 0 67 9 97 21 47 17 70 19 153 14 54 -3 121 -8 148 -11 76 -9 194 -59 271 -113 77 -55 190 -175 199 -213 7 -26 -11 -45 -75 -78 -23 -12 -22 -10 8 24 34 39 38 52 22 76 -15 25 -135 26 -220 1 -87 -24 -131 -53 -210 -138 -54 -57 -65 -65 -108 -70 l-48 -5 4 74 c5 97 -10 112 -111 110 l-47 -2 25 40 c17 27 23 48 19 63 -11 39 -130 122 -216 151 -37 12 -15 -5 45 -34 34 -17 83 -50 110 -73 46 -41 47 -44 36 -75 -6 -17 -13 -32 -15 -32 -13 0 -73 37 -118 72 -27 22 -68 47 -89 55 -22 9 -48 30 -59 47 l-19 31 3 -29 c3 -26 13 -35 72 -65 37 -19 82 -48 98 -63 17 -16 43 -36 59 -45 35 -21 37 -41 6 -47 -44 -10 -95 -12 -91 -4 3 4 -1 8 -9 8 -7 0 -24 10 -37 22 -13 12 -46 29 -74 38 -46 15 -51 20 -58 55 -5 22 -10 41 -13 43 -2 3 -20 -7 -39 -22 -57 -43 -82 -157 -52 -230 16 -39 118 -149 176 -191 23 -16 57 -42 74 -57 40 -34 70 -45 166 -65 41 -8 106 -26 144 -38 l70 -23 38 21 c39 22 141 124 146 145 4 21 -17 12 -35 -15 -29 -42 -74 -83 -113 -103 -30 -15 -44 -17 -81 -9 -24 5 -53 13 -64 19 -11 5 -57 16 -102 25 -105 20 -113 23 -164 65 -132 108 -179 153 -208 196 -29 44 -35 65 -34 119 1 60 6 74 35 110 l33 39 5 -39 c5 -38 7 -40 57 -55 34 -10 67 -30 92 -54 l38 -37 79 11 c44 6 95 14 115 17 29 4 40 1 57 -17 24 -26 37 -97 23 -133 -9 -23 -7 -26 12 -29 31 -4 23 -37 -16 -68 -40 -31 -87 -82 -87 -93 0 -5 7 -1 16 7 17 17 25 20 23 9 -6 -37 36 -73 85 -73 37 0 145 56 179 92 26 28 27 32 12 48 -16 17 -15 21 7 52 12 18 30 39 38 46 29 26 135 71 180 77 25 3 59 8 75 11 23 4 17 -1 -21 -19 -28 -14 -55 -30 -58 -36 -11 -16 3 -13 32 8 15 10 38 22 52 26 42 12 147 74 154 90 8 22 -4 46 -43 86 -52 52 -83 100 -64 98 10 -1 33 60 33 87 0 12 -5 26 -11 30 -12 7 31 37 72 49 13 4 32 14 42 23 16 15 18 14 24 -6 5 -19 13 -22 57 -23 l51 -1 -42 -8 c-49 -10 -93 -36 -93 -56 0 -20 44 -28 83 -15 40 14 89 61 70 68 -17 6 -16 23 0 23 21 0 97 58 97 74 0 7 9 16 20 19 11 3 20 11 20 17 0 10 -3 10 -15 0 -12 -10 -15 -10 -15 4 0 9 5 16 12 16 19 0 68 52 68 72 0 15 4 17 17 9 19 -10 60 6 83 34 12 14 14 13 25 -7 17 -35 72 -28 135 18 60 43 77 69 59 90 -6 8 -18 14 -26 14 -8 0 -12 4 -8 9 3 5 30 13 60 16 36 5 67 16 89 34 38 28 50 54 14 27 -43 -30 -63 -38 -33 -12 17 14 25 25 18 26 -6 0 -23 -14 -37 -31 l-26 -31 0 30 c0 26 4 31 35 36 40 8 84 54 63 68 -7 4 -17 8 -23 8 -5 0 -5 -4 2 -8 7 -4 9 -13 4 -20 -11 -18 -99 -44 -106 -31 -4 5 -1 8 7 7 7 -2 12 3 11 9 -2 7 2 12 8 10 17 -3 31 58 27 117 -3 50 -4 51 -36 51 -44 0 -57 23 -31 51 12 12 19 30 16 41 -3 15 -6 13 -15 -9 -6 -16 -18 -28 -26 -28 -9 0 -12 -7 -9 -20 3 -11 1 -26 -5 -33 -5 -6 -8 -23 -5 -37 2 -13 -2 -37 -8 -53 -9 -21 -9 -31 -1 -36 17 -11 33 -62 26 -85 -6 -18 -5 -19 10 -7 11 9 16 10 16 2 0 -7 4 -10 9 -6 5 3 13 0 17 -6 5 -8 3 -9 -5 -4 -9 5 -12 0 -9 -15 2 -13 -3 -25 -11 -28 -8 -3 -11 0 -7 6 4 6 -3 6 -19 -1 -14 -7 -28 -20 -31 -29 -6 -19 -44 -25 -44 -8 0 6 -7 10 -16 10 -14 0 -14 2 -3 16 17 21 32 138 29 238 -1 63 -7 90 -26 125 -13 25 -24 53 -24 61 -1 19 -34 43 -82 59 -32 11 -38 17 -38 42 0 24 -4 29 -25 29 -17 0 -29 -9 -39 -29 -9 -16 -13 -31 -10 -33 2 -3 -3 -11 -12 -18 -12 -11 -22 -11 -47 -2 -29 11 -34 10 -49 -9 -18 -21 -22 -42 -18 -86 2 -26 -39 -56 -65 -47 -15 6 -16 4 -6 -14 14 -26 14 -26 50 -7 28 14 48 56 36 76 -12 18 6 68 26 74 41 13 58 -36 23 -66 -22 -18 -16 -30 12 -23 l26 7 -17 -33 c-9 -17 -28 -39 -43 -47 -15 -9 -34 -30 -42 -47 -8 -17 -24 -35 -36 -41 -23 -12 -23 -30 1 -80 14 -31 14 -38 1 -70 -12 -28 -12 -35 -2 -35 36 0 47 -106 16 -157 -14 -24 -15 -31 -5 -26 10 3 15 -1 15 -12 0 -9 4 -14 10 -10 9 6 10 11 13 122 1 34 6 65 11 70 5 5 6 2 1 -5 -6 -11 -3 -12 14 -3 20 11 29 23 14 19 -5 -1 -21 4 -37 11 -22 9 -26 14 -17 24 7 9 7 17 1 23 -6 6 -1 10 14 12 13 1 24 -4 23 -11 -1 -30 4 -48 12 -43 12 8 39 -16 43 -39 2 -17 -3 -20 -29 -20 -18 0 -29 -3 -24 -8 8 -8 -8 -82 -23 -106 -7 -11 -5 -13 10 -6 10 4 29 10 41 12 17 4 20 9 14 22 -13 23 -2 73 14 67 17 -6 28 36 12 47 -9 6 -8 7 3 5 8 -3 25 7 38 21 14 14 19 18 12 8 -11 -15 -10 -17 8 -14 25 4 42 17 22 17 -7 0 -10 3 -7 7 4 3 15 -2 26 -11 14 -13 21 -14 27 -5 4 8 3 10 -4 5 -15 -9 -15 4 -2 24 9 13 12 12 25 -4 17 -23 14 -30 -27 -50 -37 -19 -41 -20 -32 -5 4 7 1 10 -7 7 -8 -3 -13 -11 -12 -17 2 -6 -8 -11 -22 -11 -17 0 -29 -9 -41 -31 -20 -39 -26 -69 -13 -69 5 0 9 -5 9 -11 0 -5 -4 -7 -10 -4 -5 3 -10 2 -10 -4 0 -5 5 -13 10 -16 17 -11 11 -43 -14 -70 -24 -26 -25 -26 -36 -5 -14 27 -26 19 -24 -17 1 -15 -3 -33 -8 -40 -5 -7 -7 -16 -4 -21 3 -6 -2 -16 -12 -23 -16 -13 -16 -12 -2 6 13 18 12 18 -10 -1 -34 -29 -64 -44 -89 -44 -12 0 -21 -4 -21 -10 0 -11 -35 -8 -46 3 -4 4 -1 18 6 32 15 28 5 48 -13 25 -16 -20 -67 -60 -78 -60 -5 0 -9 10 -9 23 -1 21 -2 20 -16 -6 -9 -17 -20 -25 -27 -21 -7 4 -9 3 -4 -1 12 -13 -24 -45 -51 -45 -20 0 -22 -2 -12 -15 7 -8 15 -13 19 -10 14 8 10 -71 -4 -89 -13 -17 -17 -18 -28 -6 -10 10 -9 11 2 5 9 -5 12 -4 7 3 -4 7 -15 12 -25 12 -9 0 -26 7 -37 15 -16 12 -17 16 -4 24 8 5 17 8 20 6 11 -7 40 64 40 95 0 17 -5 30 -11 30 -5 0 -7 5 -4 10 3 6 2 10 -3 10 -6 0 -8 8 -5 18 2 10 -3 31 -11 47 -9 17 -16 42 -16 56 0 31 24 67 34 51 4 -7 1 -12 -6 -12 -9 0 -9 -3 2 -10 9 -6 18 -6 24 0 20 20 53 11 58 -14 3 -16 1 -23 -8 -19 -6 2 -15 0 -19 -6 -3 -7 2 -11 14 -11 23 0 44 31 35 53 -5 15 32 67 48 67 16 0 7 -40 -12 -52 -26 -16 -26 -28 0 -21 11 3 17 10 13 16 -3 6 -1 7 5 3 15 -9 4 -36 -14 -36 -8 0 -13 -3 -13 -7 4 -22 -3 -32 -16 -26 -9 3 -15 2 -14 -3 3 -20 -2 -26 -14 -15 -11 8 -19 5 -35 -14 -25 -28 -24 -29 13 -15 23 9 26 8 21 -7 -15 -49 38 -54 91 -9 35 30 24 46 -13 17 -28 -22 -64 -28 -64 -10 0 6 14 24 30 41 26 26 35 29 63 23 75 -17 101 3 92 70 -4 29 -1 50 13 78 16 31 18 44 10 79 -5 24 -16 50 -23 58 -12 13 -12 22 -3 48 9 24 9 35 1 43 -9 9 -6 19 9 40 l21 28 -22 57 c-24 64 -16 89 26 81 18 -3 23 0 21 12 -8 41 -80 6 -80 -39 1 -14 6 -49 13 -78 11 -45 11 -54 -3 -68 -14 -14 -17 -14 -31 0 -12 13 -13 23 -6 51 11 38 -3 81 -23 69 -7 -4 -6 -9 2 -14 8 -5 10 -21 5 -48 -4 -23 -2 -49 4 -60 10 -19 0 -36 -34 -55 -14 -7 -11 81 4 96 6 6 11 15 11 21 0 5 -9 0 -20 -12 -12 -12 -22 -22 -23 -22 -2 0 -1 17 1 38 2 28 1 33 -7 22 -6 -8 -11 -22 -11 -31 0 -17 -36 -53 -63 -62 -10 -4 -15 -11 -12 -17 10 -15 21 -12 53 15 17 14 33 25 37 25 10 0 -2 -85 -15 -110 -5 -10 -27 -24 -47 -31 -21 -7 -44 -20 -51 -30 -7 -10 -31 -24 -53 -31 -30 -9 -45 -20 -56 -44 -18 -37 -12 -64 14 -64 38 0 111 29 138 54 33 30 49 29 53 -3 3 -16 0 -21 -8 -16 -8 5 -11 3 -8 -6 5 -16 -37 -66 -63 -74 -10 -3 -29 1 -42 10 -22 14 -25 14 -42 -5 -20 -22 -27 -73 -14 -107 6 -15 4 -27 -6 -37 -19 -18 -19 -27 -2 -20 9 3 21 -11 32 -37 17 -37 18 -44 4 -68 -8 -14 -26 -32 -41 -39 -26 -12 -62 -7 -53 8 3 5 0 12 -6 16 -8 5 -9 3 -4 -6 5 -8 3 -11 -6 -8 -8 3 -13 10 -12 16 2 6 -4 9 -11 6 -8 -3 -36 4 -62 15 -26 12 -66 24 -88 27 -64 9 -69 11 -54 28 9 9 17 11 25 4 12 -10 33 -3 33 10 0 10 -52 9 -68 -1 -8 -6 -15 0 -21 15 -9 21 -10 21 -10 2 -1 -11 4 -25 11 -32 9 -9 -15 -12 -104 -11 -91 0 -130 -4 -179 -20 -34 -12 -76 -21 -93 -21 -17 0 -55 -11 -85 -25 -30 -14 -62 -23 -73 -20 -23 8 -46 51 -54 106 -7 46 -19 69 -37 69 -5 0 -2 -8 7 -19 16 -17 16 -19 -6 -25 -61 -16 -98 8 -93 59 3 19 -5 29 -33 46 -21 13 -38 23 -40 24 -6 5 31 85 39 85 5 0 9 11 9 24 0 15 11 33 27 46 l27 21 8 -20 c11 -32 28 -26 18 7 -5 15 -15 45 -22 68 -7 22 -21 48 -30 58 -10 10 -18 22 -18 27 0 14 40 -14 45 -32 6 -19 45 -56 45 -43 0 18 -36 63 -82 103 -30 27 -51 56 -61 84 -14 41 -13 47 8 97 14 32 32 58 48 66 13 7 27 20 31 29 4 13 2 14 -14 5 -10 -5 -28 -10 -39 -10 -18 0 -21 6 -21 38 0 34 4 38 40 54 36 15 40 20 40 53 0 20 7 49 15 65 31 59 98 81 114 36 10 -25 50 -41 65 -26 33 33 86 -11 86 -72 0 -25 4 -38 8 -31 4 7 21 15 38 19 41 8 84 -26 84 -68 0 -26 2 -29 15 -18 8 7 15 19 15 27 0 12 7 14 32 9 43 -8 58 -23 58 -58 0 -17 4 -27 10 -23 17 11 11 54 -11 76 -16 16 -31 20 -64 17 -34 -2 -45 1 -48 13 -3 10 -17 25 -32 35 -22 14 -32 16 -56 7 -49 -19 -35 10 19 40 36 19 67 27 132 31 127 9 190 21 244 45 39 19 68 23 151 25 94 1 105 3 138 29 35 26 67 35 67 19 0 -9 110 22 143 39 9 5 27 7 40 4 12 -3 43 -7 68 -9 25 -2 55 -9 67 -15 11 -6 31 -11 45 -11 26 0 120 30 114 36 -2 3 -16 0 -31 -5 -18 -7 -26 -7 -26 0 0 15 183 99 217 99 16 0 56 -5 88 -11 56 -10 61 -9 73 10 13 19 16 19 37 5 18 -12 28 -13 44 -5 27 15 29 15 45 -16 18 -36 16 -155 -2 -161 -11 -3 -12 6 -7 39 4 31 2 50 -9 64 -20 27 -28 16 -16 -24 8 -29 6 -36 -23 -67 -23 -25 -37 -33 -49 -29 -10 4 -15 11 -12 16 3 5 1 9 -5 9 -5 0 -23 -19 -38 -42 -28 -43 -73 -67 -60 -34 8 20 -7 21 -26 2 -21 -22 -10 -58 26 -81 39 -26 42 -36 18 -66 -20 -24 -20 -24 -35 -4 -8 11 -15 16 -15 10 0 -23 26 -44 47 -38 13 3 22 1 22 -6 0 -11 51 -41 69 -41 17 0 34 40 23 53 -13 17 -23 62 -30 144 -6 62 -5 70 8 63 9 -5 23 -3 35 6 25 19 32 18 40 -6 4 -12 -2 -38 -15 -65 -19 -39 -20 -49 -9 -78 9 -26 9 -42 0 -67 -10 -31 -9 -37 19 -71 19 -24 30 -49 30 -69 0 -22 8 -38 29 -55 16 -14 33 -43 41 -69 9 -34 19 -47 41 -57 l30 -12 -37 -32 c-23 -20 -32 -35 -25 -39 14 -9 31 1 31 20 0 8 11 19 25 24 33 13 32 23 -10 54 -19 15 -35 34 -35 43 0 24 -42 93 -57 93 -8 0 -13 12 -13 32 0 21 -9 41 -26 59 -24 25 -26 33 -20 73 4 25 12 48 17 52 20 12 29 54 17 77 -6 12 -12 36 -13 52 -1 17 -5 41 -9 55 -8 24 -8 24 7 5 13 -16 19 -18 34 -9 14 9 19 26 21 82 2 60 -1 76 -20 105 -21 33 -24 34 -77 32 -31 -1 -64 -5 -73 -9 -9 -4 -55 -4 -103 1 l-86 9 -80 -43z m269 -230 c-2 -10 -11 -19 -21 -21 -16 -3 -17 -1 -5 17 16 25 31 27 26 4z m-62 -27 c14 4 15 3 6 -4 -11 -7 -7 -11 15 -17 15 -5 32 -7 36 -6 5 1 7 -9 5 -21 -2 -13 -9 -22 -16 -20 -6 1 -12 -8 -13 -20 -1 -20 -2 -19 -9 5 -5 16 -17 35 -27 43 -10 7 -14 14 -9 14 4 0 0 8 -11 18 -10 9 -14 14 -7 9 6 -4 20 -5 30 -1z m172 -46 c1 -32 -12 -40 -22 -14 -4 9 -1 23 5 30 15 19 16 18 17 -16z m-325 -47 c3 -5 -1 -14 -9 -20 -14 -14 -30 0 -19 17 7 12 22 13 28 3z m214 0 c-4 -3 -2 -12 4 -19 6 -8 8 -21 5 -30 -5 -14 -4 -15 9 -4 10 8 15 9 15 1 0 -6 -3 -11 -7 -12 -5 0 -16 -2 -25 -4 -10 -2 -18 1 -18 6 0 6 -4 8 -9 5 -5 -3 -11 3 -14 14 -3 12 0 20 8 20 7 0 15 7 19 15 3 8 9 15 12 15 4 0 4 -3 1 -7z m-204 -62 c-6 -24 -56 -27 -51 -2 2 9 11 15 21 15 9 -1 17 2 17 8 0 5 4 7 9 4 5 -3 7 -14 4 -25z m64 -27 c0 -8 -6 -14 -14 -14 -28 0 -63 -32 -63 -57 0 -29 -84 -113 -112 -113 -10 0 -18 -6 -19 -12 0 -9 -2 -9 -6 1 -5 11 -7 11 -14 0 -7 -11 -9 -9 -9 7 0 14 10 24 33 33 24 10 38 24 46 47 7 19 16 34 20 34 5 0 7 11 6 24 -2 19 1 23 13 19 10 -4 13 -2 8 5 -12 20 -36 13 -36 -10 0 -14 -4 -18 -9 -12 -15 14 -1 64 18 64 14 0 14 -2 1 -10 -11 -7 -7 -10 18 -10 17 0 32 -4 32 -10 0 -5 8 -10 18 -10 14 0 15 2 2 10 -13 8 -12 10 4 10 11 0 16 5 13 13 -3 9 3 12 22 9 15 -2 28 -10 28 -18z m43 -20 c0 -14 -3 -14 -15 -4 -8 7 -15 14 -15 16 0 2 7 4 15 4 8 0 15 -7 15 -16z m-22 -30 c12 -8 22 -12 22 -8 0 5 12 -8 26 -27 25 -34 28 -64 9 -111 -5 -13 -2 -18 9 -18 9 0 16 -7 16 -15 0 -8 -7 -15 -15 -15 -8 0 -15 7 -15 16 0 8 -4 13 -9 9 -9 -5 -23 22 -19 35 1 3 -4 15 -11 28 -16 31 -42 28 -76 -10 -22 -26 -29 -43 -29 -78 -1 -40 2 -45 22 -48 13 -2 41 3 62 12 37 15 39 15 54 -9 11 -17 16 -44 15 -79 -2 -46 -6 -56 -26 -67 -35 -19 -28 -35 15 -30 20 3 14 -25 -10 -42 -19 -13 -20 -16 -6 -16 9 -1 20 4 23 10 10 15 53 29 70 22 33 -12 12 -47 -45 -76 -65 -33 -92 -32 -97 2 -2 14 -5 27 -8 29 -2 2 -27 -12 -55 -33 -28 -21 -52 -36 -54 -34 -2 2 -8 18 -14 35 -7 23 -7 35 1 44 9 10 9 11 -1 5 -11 -6 -11 -3 -2 11 7 11 38 27 71 38 65 20 76 30 85 73 5 24 1 34 -17 46 -19 14 -26 14 -57 2 -19 -8 -43 -15 -54 -15 -12 0 -17 -4 -12 -12 5 -8 2 -9 -9 -5 -9 3 -19 2 -22 -3 -9 -15 -41 -12 -55 5 -11 13 -9 19 7 38 12 12 24 32 28 45 9 31 -3 84 -18 76 -7 -4 4 8 23 25 19 17 40 31 46 31 14 0 38 35 49 70 9 30 34 60 49 60 6 0 22 -7 34 -16z m-16 -101 c-10 -4 -9 -8 5 -19 17 -13 17 -13 -4 -14 -13 0 -23 6 -23 13 0 17 10 27 24 26 6 0 5 -3 -2 -6z m189 -30 c1 -10 1 -21 0 -25 0 -5 4 -8 10 -8 6 0 9 6 6 14 -3 8 2 16 14 19 10 3 17 1 13 -4 -3 -5 0 -9 5 -9 6 0 11 -18 11 -39 0 -42 -26 -97 -50 -106 -8 -3 -11 -3 -7 1 4 4 2 12 -3 19 -10 12 21 55 40 55 6 0 10 5 10 11 0 5 -4 7 -10 4 -5 -3 -10 -2 -10 3 0 6 -10 12 -23 16 -17 4 -23 13 -25 36 -1 16 2 30 8 30 5 0 11 -8 11 -17z m-220 -27 c5 3 9 1 9 -4 0 -11 -30 -25 -38 -18 -2 3 -1 13 3 23 5 12 9 14 12 5 3 -6 9 -10 14 -6z m60 -8 c10 -18 8 -24 -7 -35 -23 -16 -71 -17 -80 0 -4 6 -4 9 1 5 4 -4 14 -3 22 3 9 8 17 8 26 1 8 -7 18 -8 27 -1 12 8 11 9 -4 7 -10 -2 -21 3 -24 11 -3 9 0 11 8 6 10 -6 12 -4 7 8 -9 25 10 21 24 -5z m-246 -8 c-3 -5 1 -10 9 -10 26 0 30 -23 6 -42 -17 -14 -19 -18 -6 -18 14 0 15 -4 6 -20 -15 -27 -30 -25 -30 4 0 14 -5 28 -11 31 -6 4 -9 -3 -7 -21 4 -35 -15 -42 -30 -9 -10 21 -9 26 8 35 11 6 28 10 37 8 9 -2 18 3 21 11 3 10 0 12 -12 8 -26 -10 -49 2 -35 19 13 16 54 19 44 4z m413 -29 c10 7 7 2 -5 -11 -26 -28 -38 -22 -27 12 7 19 8 20 12 5 3 -15 6 -16 20 -6z m-100 -24 c2 -9 -2 -17 -8 -17 -7 0 -9 7 -6 16 3 8 2 12 -3 9 -5 -3 -13 0 -16 6 -5 7 0 10 11 7 10 -2 20 -11 22 -21z m-494 -24 c-6 -43 -17 -63 -36 -63 -10 0 -17 -4 -13 -9 3 -5 1 -12 -5 -16 -5 -3 -10 -15 -10 -26 0 -12 4 -17 11 -14 6 4 8 13 5 21 -3 9 2 14 14 14 11 0 20 6 20 13 1 6 9 2 20 -11 20 -24 17 -52 -5 -52 -9 0 -11 -8 -7 -22 5 -21 4 -22 -11 -9 -15 12 -17 12 -12 -2 4 -8 2 -18 -3 -21 -6 -3 -9 7 -8 23 1 21 -3 31 -16 34 -10 3 -18 14 -18 25 0 12 -4 23 -9 26 -12 8 -8 -46 4 -60 5 -7 13 -10 18 -7 4 2 7 -5 7 -15 0 -11 -7 -23 -16 -26 -8 -3 -12 -11 -8 -17 3 -6 0 -15 -7 -20 -10 -6 -7 -8 9 -6 24 1 27 8 13 22 -6 6 5 11 31 12 22 0 45 6 51 12 8 8 8 11 -1 11 -6 0 -9 7 -6 15 7 18 24 20 24 3 0 -20 -33 -88 -43 -88 -5 0 -4 7 3 15 7 9 10 18 8 21 -3 3 -12 -9 -19 -25 -13 -28 -39 -43 -39 -23 0 5 -7 9 -16 9 -14 0 -14 -2 2 -14 15 -11 16 -13 2 -13 -9 0 -20 9 -23 20 -3 11 -14 20 -23 21 -11 0 -12 2 -4 6 6 2 9 9 6 15 -4 6 -1 13 5 17 8 5 4 16 -13 34 -13 14 -27 23 -30 20 -3 -3 -13 0 -22 8 -15 12 -16 12 -10 -7 9 -30 -18 -52 -41 -33 -15 12 -16 12 -11 -3 5 -12 -2 -21 -27 -32 -43 -21 -55 -20 -55 2 0 22 56 66 74 59 7 -3 21 8 30 24 16 27 19 28 33 13 9 -9 26 -14 40 -11 14 3 23 -1 23 -9 0 -7 4 -15 8 -18 4 -2 8 4 8 15 0 19 -7 23 -38 20 -31 -4 -19 24 18 44 20 11 43 30 52 43 8 13 21 21 29 18 9 -4 11 -1 7 5 -4 6 0 15 7 20 21 13 26 11 23 -8z m201 -200 c-2 -10 -4 -21 -4 -25 -1 -5 -5 -8 -10 -8 -4 0 -6 11 -3 25 2 14 8 25 12 25 5 0 7 -8 5 -17z m-195 -102 c0 -31 -28 -52 -66 -49 -34 2 -43 11 -24 23 6 4 8 11 5 16 -4 5 -2 9 4 9 5 0 11 -5 13 -12 3 -8 13 -5 33 10 34 27 35 27 35 3z m15 -286 c-41 -26 -82 -34 -69 -14 9 15 64 38 89 38 15 0 9 -6 -20 -24z m-275 -253 c0 -5 14 -7 30 -4 28 4 30 2 30 -27 0 -45 -33 -61 -160 -76 -32 -3 -96 -29 -124 -48 -18 -13 -26 -15 -21 -6 4 7 -6 1 -24 -16 -42 -39 -93 -128 -85 -149 9 -22 23 -20 17 3 -6 24 15 38 24 15 9 -24 -44 -67 -124 -99 -35 -14 -68 -25 -74 -25 -13 0 -59 46 -59 60 0 5 21 31 46 58 25 26 49 57 54 70 12 29 50 30 50 1 0 -30 23 -18 32 17 8 31 81 114 139 157 42 31 154 71 181 64 10 -3 16 -1 12 4 -3 5 9 9 25 9 17 0 31 -4 31 -8z"/> <path d="M1762 1705 c-12 -14 -22 -30 -22 -35 0 -6 -4 -10 -10 -10 -5 0 -10 -7 -10 -15 0 -25 14 -17 28 15 8 17 19 30 26 30 6 0 12 9 12 20 0 11 -1 20 -1 20 -1 0 -11 -11 -23 -25z"/> <path d="M856 382 c-3 -6 -1 -14 5 -17 15 -10 25 3 12 16 -7 7 -13 7 -17 1z"/> <path d="M756 295 c-3 -9 -6 -24 -5 -33 0 -9 5 -4 10 12 9 32 6 48 -5 21z"/> <path d="M2038 2155 c-4 -16 -9 -39 -12 -50 -4 -11 1 -5 9 14 9 18 14 41 13 50 -2 9 -7 3 -10 -14z"/> <path d="M1745 2155 c-39 -18 -31 -18 25 -1 25 8 36 15 25 15 -11 0 -33 -6 -50 -14z"/> <path d="M1885 2130 c4 -6 11 -8 16 -5 5 4 9 2 9 -3 0 -5 -18 -16 -40 -25 -31 -12 -40 -12 -40 -3 0 7 10 18 23 24 12 6 16 11 9 11 -7 1 -29 -15 -50 -35 -20 -20 -30 -32 -22 -28 8 4 33 8 55 9 26 0 51 8 69 23 16 12 35 22 43 22 8 0 11 5 8 10 -3 6 -24 10 -46 10 -25 0 -38 -4 -34 -10z"/> <path d="M1170 2054 c-19 -7 -55 -17 -80 -22 l-45 -10 39 -1 c33 -1 176 34 176 43 0 7 -59 1 -90 -10z"/> <path d="M1477 2049 c-16 -4 -35 -13 -43 -20 -16 -13 -19 -49 -3 -49 5 0 8 4 5 8 -8 13 35 47 61 49 53 4 31 -42 -32 -67 -34 -13 -47 -30 -24 -30 13 0 66 29 92 49 17 14 24 60 10 62 -5 0 -15 2 -23 3 -8 2 -28 -1 -43 -5z"/> <path d="M1866 2008 c-3 -13 -5 -32 -5 -43 1 -11 5 -2 10 19 10 42 6 62 -5 24z"/> <path d="M983 2007 c-17 -7 -35 -15 -39 -19 -13 -14 20 -7 61 12 44 20 28 25 -22 7z"/> <path d="M1573 2013 c12 -11 66 -13 72 -3 4 6 -11 10 -36 10 -23 0 -39 -3 -36 -7z"/> <path d="M2269 1980 c-6 -87 22 -176 84 -263 40 -57 77 -150 65 -163 -3 -3 -1 -24 4 -47 5 -23 13 -84 17 -135 7 -80 14 -104 45 -164 20 -39 41 -93 46 -120 11 -57 -3 -100 -82 -246 -55 -103 -68 -107 -76 -24 -6 64 12 115 55 163 47 52 21 50 -29 -1 -78 -83 -100 -178 -57 -249 20 -34 20 -34 1 -60 -21 -28 -150 -127 -157 -119 -2 2 7 40 21 83 27 86 43 205 27 205 -5 0 -14 -26 -20 -57 -13 -65 -67 -221 -87 -248 -13 -18 -14 -17 -42 2 -69 49 -219 109 -229 93 -3 -5 9 -17 27 -26 50 -25 178 -107 178 -113 0 -8 -39 -25 -112 -50 l-58 -20 -34 40 c-19 23 -44 66 -57 97 -27 69 -39 85 -39 50 0 -14 -7 -31 -15 -38 -8 -6 -13 -19 -12 -28 3 -30 -37 -162 -50 -162 -14 0 -6 33 26 105 12 26 19 50 17 52 -6 7 -36 -52 -57 -112 -16 -47 -20 -50 -58 -57 -66 -11 -291 -16 -297 -7 -15 25 228 129 301 129 14 0 25 5 25 10 0 13 -116 13 -182 -1 -78 -17 -152 -54 -191 -99 -28 -30 -43 -38 -66 -38 -17 1 -31 5 -31 10 0 5 -4 6 -10 3 -5 -3 -26 1 -45 11 -28 13 -38 14 -50 4 -28 -23 -15 -37 50 -54 35 -9 73 -16 84 -16 15 0 21 -9 26 -39 9 -53 56 -125 102 -155 45 -30 149 -59 177 -50 15 5 6 11 -39 25 -96 30 -175 112 -175 182 l0 25 183 -2 182 -2 7 -65 c6 -63 15 -93 45 -156 24 -51 44 -44 27 10 -7 23 -18 80 -25 126 -11 78 -11 85 6 98 11 7 35 13 54 13 20 0 53 5 73 10 34 10 41 8 105 -33 69 -43 131 -67 174 -67 19 0 15 5 -20 20 -23 11 -47 18 -52 15 -16 -10 -159 77 -159 97 0 16 27 7 50 -17 29 -31 99 -79 105 -73 3 3 -20 22 -50 43 -31 21 -54 39 -53 41 13 12 203 74 215 70 8 -4 53 -32 99 -63 46 -31 86 -54 89 -52 9 10 -39 65 -96 111 l-59 47 53 5 c28 3 109 7 179 10 216 8 197 34 -27 36 -134 1 -139 2 -115 18 14 9 50 41 81 72 l56 55 74 -5 c41 -3 99 -3 130 1 55 6 157 44 147 55 -3 3 -45 0 -94 -7 -75 -10 -209 -7 -220 4 -2 2 19 58 46 125 28 67 50 128 50 135 0 8 9 26 20 40 14 18 17 28 9 33 -7 4 -2 15 15 31 14 13 26 30 26 38 0 26 71 126 101 144 16 9 29 24 29 33 0 9 22 39 49 65 26 26 54 59 61 73 7 14 28 43 45 65 45 55 66 100 80 168 14 62 5 76 -15 25 -8 -18 -20 -41 -29 -51 -22 -26 -99 -77 -117 -77 -7 0 -14 -4 -14 -8 0 -17 13 -21 32 -11 29 16 33 4 15 -43 -9 -23 -15 -43 -13 -45 5 -5 36 74 37 95 0 14 2 14 9 -3 8 -19 9 -19 9 -1 1 20 50 91 58 83 11 -12 -46 -104 -112 -179 -8 -10 -13 -18 -11 -18 3 0 -9 -15 -26 -32 -16 -18 -41 -50 -55 -70 -41 -61 -38 -44 7 37 23 41 38 80 34 86 -5 8 -3 9 6 4 9 -6 10 -2 5 15 -4 14 -3 20 3 16 10 -6 26 23 17 32 -3 3 -5 -1 -6 -9 -1 -8 -4 -3 -8 10 -9 32 -61 49 -61 20 0 -10 -4 -19 -10 -19 -5 0 -9 10 -7 22 2 19 -4 23 -40 28 -41 6 -43 5 -44 -19 -1 -25 -2 -25 -8 3 -3 17 -9 29 -14 28 -4 -1 -21 5 -37 13 -28 14 -65 76 -84 138 -3 9 -27 31 -53 47 -68 44 -120 95 -154 154 -16 28 -29 44 -30 36z m51 -109 c0 -9 3 -27 5 -41 4 -17 -1 -12 -15 15 -11 22 -19 49 -19 60 0 20 0 20 14 1 8 -11 15 -27 15 -35z m46 -44 c22 -32 51 -134 41 -143 -3 -3 -18 22 -35 55 -16 33 -31 58 -33 56 -2 -2 -4 12 -5 31 -1 42 5 43 32 1z m73 -76 c15 -57 29 -139 41 -236 6 -49 16 -126 22 -170 7 -44 12 -88 12 -97 0 -9 4 -14 9 -11 5 3 6 -5 2 -18 -5 -17 -4 -21 3 -14 8 7 7 35 -2 95 -17 104 -37 319 -35 380 l1 45 9 -34 c10 -32 16 -42 49 -78 16 -18 17 -113 1 -272 -5 -47 -6 -93 -2 -104 4 -10 13 62 20 160 8 98 16 182 18 186 8 13 41 -22 48 -51 l7 -27 13 25 c16 29 20 13 5 -24 -14 -37 -61 -269 -55 -274 2 -3 11 0 19 7 11 9 15 9 20 -1 3 -7 4 -4 1 8 -3 11 4 47 15 79 11 32 18 60 15 63 -2 3 -6 -1 -9 -9 -14 -47 -49 -139 -52 -136 -2 2 66 282 79 319 6 20 28 -13 32 -48 4 -33 3 -34 -3 -9 -7 25 -10 16 -20 -55 -7 -47 -21 -109 -32 -139 -12 -29 -19 -55 -17 -57 7 -7 55 109 66 158 17 73 42 128 58 128 12 0 15 -8 11 -37 -6 -42 -83 -207 -124 -265 -25 -34 -28 -36 -49 -22 -12 8 -25 11 -29 7 -4 -4 -5 -1 -2 7 10 28 23 129 16 125 -4 -3 -10 -24 -14 -47 -10 -63 -26 -108 -38 -105 -6 1 -13 -4 -16 -12 -2 -8 0 -11 6 -7 6 4 8 -2 4 -16 -5 -20 -9 -16 -29 27 -12 28 -23 59 -23 69 0 10 -7 24 -15 30 -9 7 -16 36 -19 81 -4 49 -3 59 3 35 19 -82 10 26 -10 120 -11 52 -24 127 -29 165 -5 39 -12 78 -15 88 -6 13 -3 16 9 11 9 -3 20 -22 25 -43z m35 -61 l6 -65 -15 65 c-17 80 -18 87 -6 75 5 -6 12 -39 15 -75z m123 -536 c2 -44 -1 -53 -11 -45 -7 6 -16 7 -21 3 -4 -4 -2 3 4 16 13 25 6 46 -12 36 -7 -3 -1 4 13 16 14 12 19 19 13 15 -7 -3 -13 -1 -13 4 0 6 6 11 13 11 8 0 13 -19 14 -56z m27 12 c-6 -16 -24 -23 -24 -8 0 10 22 33 27 28 2 -2 1 -11 -3 -20z m-126 -284 c-7 -18 -16 -32 -20 -32 -4 0 0 16 9 35 20 42 27 41 11 -3z m-143 -20 c-4 -25 -1 -54 9 -83 22 -61 20 -80 -3 -52 -25 30 -34 85 -21 133 14 51 24 52 15 2z m108 -54 c-9 -18 -25 -45 -35 -60 -10 -15 -15 -29 -11 -31 17 -9 111 -19 178 -19 50 0 63 -2 45 -8 -33 -11 -166 -12 -211 -1 -33 8 -38 6 -53 -19 -22 -39 -124 -125 -168 -143 -21 -9 -38 -21 -38 -28 0 -6 -7 -9 -15 -5 -8 3 -15 1 -15 -4 0 -6 5 -10 12 -10 14 0 158 -109 158 -120 0 -4 -41 19 -90 52 -69 46 -93 58 -103 49 -13 -10 -141 -61 -164 -65 -7 -1 -15 -5 -19 -8 -3 -4 -12 -4 -20 -1 -8 3 -21 0 -29 -7 -12 -10 -15 -9 -15 4 0 13 9 20 23 15 4 -1 109 40 156 62 24 11 49 18 57 15 7 -3 16 0 20 6 4 7 3 8 -4 4 -7 -4 -12 -5 -12 -2 0 2 37 26 83 52 75 43 207 160 207 183 0 14 63 121 71 121 4 0 0 -15 -8 -32z m-278 -198 c-14 -41 -30 -79 -36 -85 -8 -7 -10 -7 -8 0 37 102 63 165 65 162 2 -2 -7 -37 -21 -77z m-163 -56 c53 -28 86 -50 80 -56 -5 -5 -45 14 -97 47 -48 30 -85 55 -81 55 4 0 48 -21 98 -46z m-214 -123 l21 -29 -31 -6 c-17 -3 -42 -6 -56 -6 -23 0 -24 3 -19 38 4 20 14 62 23 92 l17 55 12 -58 c6 -31 21 -70 33 -86z m38 12 c19 -25 21 -33 10 -33 -19 0 -64 76 -72 121 -5 33 -5 32 16 -11 11 -24 32 -59 46 -77z m574 66 c-129 -11 -238 -11 -220 1 8 5 80 9 160 8 138 -1 141 -1 60 -9z m-945 -38 c-92 -34 -121 -48 -157 -80 -20 -17 -44 -31 -54 -31 -15 0 -14 3 7 26 48 52 158 102 224 103 26 0 23 -2 -20 -18z m-365 -117 c0 -3 -6 -1 -13 5 -8 6 -17 8 -20 4 -4 -3 -7 -2 -7 4 0 18 12 22 26 8 8 -7 14 -17 14 -21z m750 21 c0 -8 -6 -15 -12 -15 -7 0 -23 -3 -35 -6 -17 -5 -23 -2 -23 9 0 14 17 21 58 26 6 0 12 -6 12 -14z m-83 -17 c-2 -8 -23 -13 -58 -13 -30 0 -61 -4 -69 -9 -18 -12 -360 -16 -360 -4 0 4 55 9 123 9 133 1 162 4 222 18 62 14 147 13 142 -1z m-510 -16 c7 -2 10 -8 7 -13 -3 -5 -10 -7 -15 -3 -5 3 -26 7 -45 9 -53 5 -56 17 -4 14 25 -1 51 -5 57 -7z m423 -75 c0 -35 6 -87 14 -117 18 -69 13 -76 -8 -13 -21 61 -34 209 -17 199 6 -4 11 -33 11 -69z m-420 23 c0 -34 26 -86 67 -131 l38 -43 -35 21 c-46 28 -89 89 -97 136 -4 30 -3 37 11 37 9 0 16 -8 16 -20z"/> <path d="M2513 1600 c0 -25 2 -35 4 -22 2 12 2 32 0 45 -2 12 -4 2 -4 -23z"/> <path d="M2526 1409 c-8 -42 0 -50 9 -9 4 17 5 34 2 36 -2 3 -7 -10 -11 -27z"/> <path d="M2472 1340 c0 -19 2 -27 5 -17 2 9 2 25 0 35 -3 9 -5 1 -5 -18z"/> <path d="M2532 1320 c0 -19 2 -27 5 -17 2 9 2 25 0 35 -3 9 -5 1 -5 -18z"/> <path d="M1665 1973 c11 -3 25 -9 32 -15 7 -5 13 -5 17 0 7 12 -18 22 -47 21 -21 -1 -21 -2 -2 -6z"/> <path d="M1822 1951 c-6 -17 -9 -31 -6 -31 7 0 25 52 20 57 -2 2 -8 -10 -14 -26z"/> <path d="M795 1953 c-60 -15 -90 -96 -39 -109 14 -4 30 -2 37 5 8 8 5 11 -10 11 -13 0 -24 8 -28 20 -8 24 -1 36 28 51 l22 12 -22 -25 c-35 -38 -27 -44 12 -9 35 30 55 38 68 24 4 -3 0 -17 -8 -29 -8 -13 -11 -25 -6 -29 12 -7 41 5 41 17 0 6 -7 5 -15 -2 -13 -11 -14 -10 -9 4 8 20 33 21 40 1 4 -8 10 -12 15 -9 15 9 10 22 -12 29 -12 4 -30 16 -40 26 -19 19 -35 21 -74 12z"/> <path d="M283 1905 c0 -22 2 -30 4 -17 2 12 2 30 0 40 -3 9 -5 -1 -4 -23z"/> <path d="M1090 1919 c-14 -6 -34 -12 -44 -15 -11 -2 -27 -11 -35 -19 -11 -10 6 -7 49 11 36 14 67 28 69 30 7 7 -13 3 -39 -7z"/> <path d="M320 1864 c0 -16 5 -36 11 -44 7 -11 8 -4 3 25 -8 50 -14 58 -14 19z"/> <path d="M1269 1877 c-15 -11 -9 -13 37 -13 56 0 61 12 9 21 -17 3 -37 0 -46 -8z"/> <path d="M913 1858 c-14 -7 -23 -20 -23 -34 0 -25 15 -40 25 -24 3 5 1 10 -4 10 -17 0 -13 27 5 34 25 10 34 7 28 -9 -4 -8 -1 -15 6 -15 14 0 9 42 -5 46 -5 1 -20 -2 -32 -8z"/> <path d="M206 1831 c-10 -11 -20 -37 -23 -58 -5 -35 -2 -42 27 -66 34 -29 59 -34 78 -15 8 8 14 5 21 -16 13 -33 52 -49 86 -36 31 12 32 22 3 20 -39 -4 -46 -1 -53 20 -4 11 -11 18 -16 15 -21 -13 -7 31 18 57 14 15 24 30 22 33 -11 11 -59 -22 -70 -47 -25 -60 -111 -11 -88 50 5 12 20 27 33 34 14 6 23 15 20 19 -9 15 -40 10 -58 -10z"/> <path d="M811 1825 c-18 -8 -38 -12 -45 -8 -6 3 -6 0 2 -8 10 -11 16 -11 32 -1 11 6 27 12 35 12 8 0 15 5 15 10 0 12 2 12 -39 -5z"/> <path d="M1527 1834 c-3 -3 -41 -17 -84 -29 -43 -13 -71 -24 -62 -24 23 -1 152 39 164 50 5 6 5 9 -1 9 -6 0 -13 -3 -17 -6z"/> <path d="M1080 1810 c0 -5 7 -10 15 -10 8 0 15 5 15 10 0 6 -7 10 -15 10 -8 0 -15 -4 -15 -10z"/> <path d="M1315 1795 c-22 -7 -31 -13 -20 -13 11 0 36 6 55 13 45 17 17 18 -35 0z"/> <path d="M925 1779 c-15 -7 -11 -7 14 -3 25 5 32 3 26 -7 -6 -9 -2 -11 16 -6 13 4 40 7 59 8 l35 1 -40 9 c-52 10 -85 10 -110 -2z"/> <path d="M1564 1776 c-3 -8 -4 -23 -2 -33 3 -11 6 -6 9 15 6 34 2 42 -7 18z"/> <path d="M515 1764 c-8 -9 -15 -12 -16 -7 0 4 -4 -2 -10 -15 -5 -13 -13 -21 -17 -18 -11 6 -13 -5 -15 -74 -2 -41 1 -54 11 -52 8 1 11 -2 7 -8 -17 -27 96 -40 132 -15 20 14 23 13 40 -11 19 -26 68 -41 79 -23 3 5 -4 9 -15 9 -20 0 -71 52 -71 73 0 7 -9 18 -21 25 -19 12 -19 11 -9 -8 14 -25 -1 -48 -31 -49 -10 -1 -28 -1 -40 -2 -27 0 -65 25 -71 48 -6 22 26 86 37 75 5 -4 5 -2 1 5 -4 8 5 18 24 28 34 18 36 21 15 29 -8 3 -21 -2 -30 -10z"/> <path d="M740 1771 c-8 -6 -17 -8 -21 -5 -4 2 -19 -10 -33 -27 -20 -24 -33 -30 -51 -26 -27 5 -34 -10 -10 -19 9 -4 32 5 53 19 77 53 146 63 162 23 5 -13 14 -27 19 -31 29 -17 -1 -95 -37 -95 -7 0 -12 -4 -12 -10 0 -22 32 -8 69 31 35 35 42 39 61 29 12 -6 24 -9 27 -6 11 10 51 -40 57 -72 5 -27 1 -38 -24 -64 -17 -17 -30 -33 -30 -35 0 -7 57 26 69 41 18 21 61 20 77 -1 7 -10 16 -15 20 -11 13 13 -28 48 -56 48 -23 0 -29 5 -34 31 -3 17 -22 47 -41 66 -29 29 -40 34 -72 31 -34 -3 -40 1 -64 37 -15 21 -35 42 -45 46 -27 11 -66 10 -84 0z"/> <path d="M1203 1748 l-38 -17 35 6 c19 3 38 11 42 17 6 8 8 8 8 -1 0 -12 37 -6 45 7 8 13 -53 5 -92 -12z"/> <path d="M1412 1700 c0 -19 2 -27 5 -17 2 9 2 25 0 35 -3 9 -5 1 -5 -18z"/> <path d="M1385 1680 c-4 -17 -5 -34 -2 -36 2 -3 7 10 11 27 3 18 4 34 2 36 -2 3 -7 -10 -11 -27z"/> <path d="M157 1678 c-6 -22 -6 -22 -28 -2 -21 19 -21 19 -18 -1 7 -36 69 -26 69 11 0 22 -17 16 -23 -8z"/> <path d="M1207 1679 c8 -8 16 -8 30 0 16 9 14 10 -11 11 -22 0 -27 -3 -19 -11z"/> <path d="M210 1650 c0 -5 5 -9 12 -7 7 1 14 -14 18 -38 3 -22 9 -46 13 -52 12 -19 48 -16 54 5 3 14 12 17 33 14 15 -2 31 2 35 9 6 9 2 11 -13 7 -12 -4 -26 0 -33 8 -17 20 -26 17 -33 -11 -11 -43 -35 -30 -38 22 -1 15 -6 34 -11 41 -11 14 -37 16 -37 2z"/> <path d="M1281 1615 c-1 -11 -4 -31 -6 -45 l-6 -25 11 25 c6 13 9 33 7 45 -4 19 -4 19 -6 0z"/> <path d="M1223 1585 c0 -22 2 -30 4 -17 2 12 2 30 0 40 -3 9 -5 -1 -4 -23z"/> <path d="M1250 1569 c0 -13 5 -31 10 -39 7 -11 8 -5 4 20 -8 43 -14 51 -14 19z"/> <path d="M1153 1532 c41 -41 46 -71 24 -125 -19 -44 -40 -59 -87 -63 -35 -2 -41 1 -46 21 -3 13 -11 29 -18 34 -9 8 -11 2 -8 -23 6 -54 -47 -130 -78 -111 -5 3 -11 1 -15 -5 -9 -14 68 -13 82 1 15 15 53 1 53 -19 0 -10 -7 -28 -16 -40 -8 -12 -10 -22 -5 -22 14 0 14 -36 1 -61 -7 -12 -7 -19 -1 -19 17 0 28 32 36 98 l7 63 -30 11 c-26 10 -29 14 -20 34 9 19 16 21 44 17 53 -9 92 13 120 68 13 27 24 55 24 62 0 8 10 22 23 31 l22 16 -27 -6 c-21 -5 -28 -2 -28 9 0 19 -56 67 -78 67 -11 0 -5 -11 21 -38z"/> <path d="M851 1529 c-18 -14 -32 -18 -53 -13 -73 15 -108 -90 -48 -146 17 -15 30 -33 30 -39 0 -20 52 -39 81 -29 21 7 28 17 31 43 2 18 1 32 -3 29 -4 -2 -10 6 -12 18 -2 13 -3 2 0 -24 l4 -48 -34 0 c-25 0 -37 6 -47 24 -7 14 -10 32 -7 40 7 19 -4 21 -21 4 -8 -8 -14 -4 -23 18 -16 42 6 77 51 85 46 7 80 26 80 44 0 19 0 19 -29 -6z"/> <path d="M439 1513 c4 -16 14 -28 22 -28 42 -1 53 -50 19 -92 -38 -49 -18 -153 30 -153 23 0 47 34 56 78 4 17 13 37 20 43 8 6 14 16 14 21 0 6 -7 5 -15 -2 -12 -10 -15 -9 -15 4 0 10 -4 14 -10 11 -5 -3 -10 -18 -10 -33 0 -44 -20 -102 -35 -102 -37 0 -47 92 -15 133 11 14 20 36 20 49 0 31 -27 69 -44 62 -8 -3 -16 3 -19 15 -3 12 -10 21 -15 21 -6 0 -7 -11 -3 -27z"/> <path d="M402 1470 c0 -19 2 -27 5 -17 2 9 2 25 0 35 -3 9 -5 1 -5 -18z"/> <path d="M1093 1460 c0 -25 2 -35 4 -22 2 12 2 32 0 45 -2 12 -4 2 -4 -23z"/> <path d="M277 1471 c-2 -10 -1 -25 4 -32 6 -10 9 -4 9 19 0 36 -5 42 -13 13z"/> <path d="M1123 1445 c0 -27 2 -38 4 -22 2 15 2 37 0 50 -2 12 -4 0 -4 -28z"/> <path d="M1032 1440 c0 -19 2 -27 5 -17 2 9 2 25 0 35 -3 9 -5 1 -5 -18z"/> <path d="M350 1425 c-7 -8 -9 -22 -6 -31 7 -17 27 -15 34 4 2 7 -2 10 -12 6 -9 -3 -16 -1 -16 4 0 6 8 12 18 14 11 2 13 6 6 11 -7 4 -17 0 -24 -8z"/> <path d="M590 1432 c0 -4 9 -13 20 -20 13 -8 20 -23 20 -41 0 -33 16 -49 33 -32 16 16 24 14 30 -9 3 -11 10 -20 15 -20 6 0 8 9 5 20 -7 25 -39 45 -48 30 -12 -19 -22 -10 -18 14 3 16 -2 31 -16 45 -21 21 -41 28 -41 13z"/> <path d="M946 1369 c-4 -33 -5 -63 -3 -66 3 -2 8 23 12 57 4 34 5 63 2 66 -2 3 -7 -23 -11 -57z"/> <path d="M923 1365 c0 -27 2 -38 4 -22 2 15 2 37 0 50 -2 12 -4 0 -4 -28z"/> <path d="M220 1350 c10 -6 15 -28 17 -66 1 -47 6 -61 25 -76 32 -24 41 -23 66 12 13 17 30 30 39 30 16 0 16 1 1 17 -14 13 -20 14 -32 3 -9 -7 -16 -19 -16 -27 0 -7 -7 -16 -15 -19 -25 -10 -45 16 -45 58 0 48 -15 78 -38 78 -14 0 -15 -2 -2 -10z"/> <path d="M1556 1266 c6 -56 6 -58 -15 -51 -16 5 -20 3 -15 -9 3 -9 15 -16 25 -16 27 0 33 40 15 91 l-16 44 6 -59z"/> <path d="M410 1265 c-1 -5 -1 -14 0 -20 2 -5 6 -26 10 -45 7 -34 8 -34 8 -5 0 31 -14 87 -18 70z"/> <path d="M680 1255 c0 -8 5 -15 10 -15 6 0 10 7 10 15 0 8 -4 15 -10 15 -5 0 -10 -7 -10 -15z"/> <path d="M736 1255 c-4 -13 -1 -15 13 -10 17 5 19 2 14 -32 -6 -45 10 -91 34 -100 12 -5 28 6 55 37 32 35 41 41 48 30 8 -13 14 -13 41 3 17 9 37 17 45 17 9 0 12 4 9 10 -7 12 -32 9 -61 -8 -16 -8 -24 -8 -33 1 -10 9 -20 3 -48 -27 -48 -52 -68 -41 -68 35 0 47 -3 54 -21 57 -13 2 -24 -4 -28 -13z"/> <path d="M177 1193 c-10 -17 3 -43 22 -43 10 0 12 3 5 8 -7 4 -13 16 -16 27 -2 13 -6 16 -11 8z"/> <path d="M682 1170 c0 -19 2 -27 5 -17 2 9 2 25 0 35 -3 9 -5 1 -5 -18z"/> <path d="M542 1168 c-18 -18 -15 -33 3 -18 27 23 60 -2 75 -55 13 -46 14 -47 46 -42 20 3 40 0 54 -10 32 -22 35 -9 4 16 -20 16 -35 20 -56 16 -26 -6 -28 -4 -34 35 -4 23 -13 48 -21 56 -18 17 -55 18 -71 2z"/> <path d="M403 1140 c18 -14 34 -19 51 -14 14 3 23 10 20 15 -3 5 -13 5 -24 -1 -13 -7 -21 -6 -30 5 -7 8 -19 15 -28 15 -10 0 -6 -7 11 -20z"/> <path d="M240 1116 c0 -38 21 -62 47 -51 16 6 16 8 -4 16 -17 6 -23 16 -23 39 0 16 -4 30 -10 30 -5 0 -10 -15 -10 -34z"/> <path d="M1200 1135 c1 -5 7 -18 15 -29 15 -20 35 -14 35 10 0 9 5 12 12 8 7 -4 8 -3 4 5 -4 6 -13 8 -19 4 -17 -11 -31 -10 -39 2 -5 6 -8 6 -8 0z"/> <path d="M518 1106 c-3 -14 -1 -31 3 -38 6 -8 9 1 9 25 0 42 -6 48 -12 13z"/> <path d="M963 1065 c0 -22 2 -30 4 -17 2 12 2 30 0 40 -3 9 -5 -1 -4 -23z"/> <path d="M1018 1083 c13 -23 8 -48 -16 -76 -22 -25 -7 -32 17 -8 25 25 27 73 4 92 -15 13 -15 12 -5 -8z"/> <path d="M1911 1054 c-57 -51 -40 -79 30 -50 12 5 18 1 22 -14 6 -25 35 -21 107 16 82 40 49 84 -51 68 -26 -4 -39 -3 -39 5 0 21 -30 11 -69 -25z m168 -10 c-31 -38 -109 -58 -109 -29 0 18 -14 19 -42 4 -28 -15 -37 -1 -12 19 14 12 43 18 98 19 68 2 76 0 65 -13z"/> <path d="M433 1015 c0 -27 2 -38 4 -22 2 15 2 37 0 50 -2 12 -4 0 -4 -28z"/> <path d="M540 1040 c0 -8 -3 -26 -7 -40 -3 -14 -2 -22 2 -18 5 4 14 3 22 -4 7 -6 17 -8 21 -4 4 4 -1 14 -12 21 -10 8 -16 18 -13 22 3 5 2 15 -4 23 -7 13 -9 13 -9 0z"/> <path d="M1121 1029 c0 -13 4 -33 9 -44 7 -14 8 -8 3 20 -7 46 -13 59 -12 24z"/> <path d="M1230 1019 c0 -21 34 -44 67 -44 18 -1 33 3 33 7 0 8 -9 10 -54 12 -11 1 -21 7 -24 15 -3 10 0 12 12 8 9 -4 16 -2 16 3 0 6 -11 10 -25 10 -14 0 -25 -5 -25 -11z"/> <path d="M1060 982 c0 -11 4 -23 9 -27 6 -3 8 4 6 16 -6 30 -15 37 -15 11z"/> <path d="M1237 873 c-12 -12 -7 -21 14 -26 17 -5 18 -3 7 11 -7 9 -13 18 -14 20 0 1 -4 -1 -7 -5z"/> <path d="M1712 834 c-28 -7 -63 -20 -75 -29 -27 -17 -54 -62 -43 -72 3 -4 34 -10 68 -14 47 -6 66 -13 85 -33 29 -31 35 -32 89 -5 72 35 84 118 21 144 -54 21 -90 23 -145 9z m144 -29 c45 -30 16 -106 -46 -120 -26 -6 -35 -2 -60 25 -26 28 -34 31 -79 29 -28 -2 -54 1 -58 4 -10 11 39 58 55 52 7 -2 10 -1 7 4 -7 12 31 25 45 16 5 -3 10 -1 10 6 0 16 95 5 126 -16z"/> <path d="M775 811 c-11 -5 -37 -27 -58 -50 -38 -42 -47 -80 -24 -99 23 -20 83 -24 138 -9 31 8 63 11 74 6 33 -13 100 -10 138 6 69 29 99 102 57 140 -17 15 -30 17 -92 11 -95 -9 -84 -9 -153 -2 -33 3 -69 2 -80 -3z m313 -21 c19 -18 31 -60 18 -60 -3 0 -18 14 -34 30 -33 32 -62 39 -62 15 0 -8 -5 -15 -11 -15 -5 0 -7 -4 -4 -10 10 -16 45 -12 45 5 0 8 5 15 11 15 6 0 9 -6 6 -14 -3 -8 1 -17 9 -20 8 -3 14 -9 14 -15 0 -12 -133 -1 -141 12 -4 5 -12 7 -18 3 -6 -4 -3 7 7 23 11 20 20 27 27 20 6 -6 5 -13 -5 -19 -12 -8 -11 -10 7 -10 17 0 21 4 16 17 -5 13 -2 15 11 10 13 -5 17 -3 13 7 -12 31 60 35 91 6z m-175 4 c14 -5 13 -8 -1 -25 -16 -19 -38 -27 -28 -10 3 4 -6 6 -20 3 -27 -5 -61 -43 -70 -77 -5 -19 -10 -21 -47 -16 -35 5 -43 10 -45 30 -4 25 37 77 73 91 23 10 116 13 138 4z m-3 -75 c23 -18 42 -22 95 -21 82 2 77 -12 -10 -27 -48 -9 -71 -9 -86 0 -12 6 -39 9 -60 7 -21 -2 -39 -1 -39 1 0 9 54 61 62 61 5 0 22 -10 38 -21z"/> <path d="M653 455 c0 -22 2 -30 4 -17 2 12 2 30 0 40 -3 9 -5 -1 -4 -23z"/> <path d="M482 430 c1 -35 7 -34 14 4 2 14 0 26 -5 26 -5 0 -9 -14 -9 -30z"/> <path d="M520 365 c0 -35 4 -66 8 -69 5 -3 7 20 5 51 -2 35 1 59 7 63 8 5 6 9 -4 13 -14 5 -16 -3 -16 -58z"/> <path d="M596 415 c-3 -9 -5 -35 -5 -58 1 -40 2 -40 9 13 9 57 7 73 -4 45z"/> <path d="M563 350 c0 -41 2 -58 4 -37 2 20 2 54 0 75 -2 20 -4 3 -4 -38z"/> <path d="M623 365 c0 -33 2 -45 4 -27 2 18 2 45 0 60 -2 15 -4 0 -4 -33z"/> <path d="M582 280 c0 -19 2 -27 5 -17 2 9 2 25 0 35 -3 9 -5 1 -5 -18z"/> </g> </svg> 